<?xml version="1.0" encoding="utf-8"?>
<!-- Generator: Adobe Illustrator 24.2.1, SVG Export Plug-In . SVG Version: 6.00 Build 0)  -->
<svg version="1.1" id="Layer_1" xmlns="http://www.w3.org/2000/svg" xmlns:xlink="http://www.w3.org/1999/xlink" x="0px" y="0px"
	 viewBox="0 0 52.22 32.59" style="enable-background:new 0 0 52.22 32.59;" xml:space="preserve">
<style type="text/css">
	.st0{stroke:#000000;stroke-width:0.25;stroke-miterlimit:10;}
	.st1{stroke:#000000;stroke-width:0.5;stroke-miterlimit:10;}
	.st2{fill:#FFFFFF;}
	.st3{fill:#FFFFFF;stroke:#FFFFFF;stroke-width:0.25;stroke-miterlimit:10;}
	.st4{fill:#FFFFFF;stroke:#FFFFFF;stroke-width:0.5;stroke-miterlimit:10;}
</style>
<path class="st2" d="M50.4,28.48c0,0,0.01,0,0.01,0c1,0,1.77-0.78,1.79-1.81c0-0.28,0-0.55,0-0.83c0-0.38-0.01-0.75,0.01-1.13
	c0.02-0.69-0.23-1.22-0.76-1.61c-0.26-0.19-0.38-0.43-0.38-0.76c0-1.34-0.43-2.62-1.25-3.8c-0.2-0.29-0.29-0.59-0.29-0.96
	c0.01-1.37,0.01-2.73,0-4.09l0-10.07c0-0.33,0-0.67,0-1l0-0.2c0-1.41-0.69-2.1-2.09-2.1H4.74c-1.44,0-2.12,0.67-2.12,2.12v1.53
	c0,4.58,0,9.17,0,13.75c0,0.42-0.1,0.74-0.31,1.05c-0.81,1.16-1.23,2.42-1.23,3.75c0,0.2,0,0.53-0.34,0.75
	c-0.36,0.24-0.58,0.6-0.76,0.97v3.18c0.44,0.93,1.07,1.34,1.97,1.28c0.21-0.01,0.38,0.04,0.49,0.15c0.16,0.16,0.18,0.39,0.18,0.55
	c-0.01,0.82-0.01,1.64,0,2.46c0.01,0.68,0.28,0.95,0.95,0.96c1.29,0.01,2.57,0.01,3.86,0c0.67,0,0.93-0.27,0.94-0.97
	c0-0.5,0-0.99,0-1.49l0-0.62c0-0.92,0.11-1.04,1.02-1.04l33.49,0c0.06,0,0.12,0,0.18,0c0.04,0,0.07-0.01,0.11-0.01
	c0.18,0,0.32,0.05,0.43,0.15c0.13,0.12,0.19,0.3,0.19,0.56c-0.01,0.84-0.01,1.68,0,2.51c0.01,0.61,0.29,0.89,0.9,0.9
	c1.3,0.01,2.6,0.01,3.91,0c0.65,0,0.92-0.28,0.93-0.92l0.01-0.41c0.01-0.62,0.02-1.27-0.01-1.89c-0.01-0.22,0-0.5,0.19-0.69
	C49.89,28.5,50.18,28.48,50.4,28.48z M4.25,2.78c0-0.92,0.11-1.04,1.02-1.04l41.74,0c0.08,0,0.15,0,0.22,0
	c0.22-0.01,0.38,0.04,0.5,0.15c0.12,0.11,0.17,0.28,0.17,0.5c0,0.13,0,0.26,0,0.39l0,10.7c0,0.75-0.01,1.5,0.01,2.25
	c0,0.21-0.01,0.45-0.2,0.57c-0.18,0.12-0.4,0.03-0.59-0.06c-0.82-0.43-1.7-0.65-2.6-0.68c-0.22-0.01-0.38-0.07-0.49-0.18
	c-0.15-0.16-0.16-0.37-0.16-0.52c0.01-0.32,0.01-0.63,0-0.95l0-0.23c-0.02-2.21-1.69-3.88-3.9-3.89c-2.74-0.01-5.49-0.01-8.23,0
	c-2.21,0.01-3.89,1.68-3.9,3.88l0,0.22c0,0.33-0.01,0.67,0,1c0,0.21-0.05,0.37-0.16,0.49c-0.11,0.11-0.29,0.15-0.49,0.17
	c-0.73-0.01-1.47-0.01-2.2,0c-0.25-0.01-0.39-0.05-0.5-0.17c-0.16-0.16-0.17-0.38-0.16-0.53c0.01-0.39,0.01-0.77,0-1.16l0-0.12
	c-0.03-2.08-1.73-3.78-3.79-3.79c-2.81-0.01-5.62-0.01-8.43,0c-1.74,0.01-3.26,1.21-3.7,2.92c-0.13,0.51-0.12,1.02-0.11,1.56
	c0,0.19,0.01,0.39,0.01,0.58c-0.01,0.47-0.22,0.7-0.69,0.71c-0.82,0.02-1.63,0.23-2.47,0.63c-0.22,0.11-0.38,0.18-0.51,0.18
	c-0.06,0-0.12-0.02-0.18-0.05C4.25,16.2,4.25,16,4.25,15.64V2.78z M42.24,14.49c0,0.16,0,0.31,0,0.46v0c0,0.19-0.05,0.34-0.15,0.44
	c-0.16,0.16-0.37,0.17-0.55,0.16l-7.2,0c-1.35,0-2.7,0-4.05,0.01c-0.01,0-0.02,0-0.03,0c-0.21,0-0.47-0.03-0.64-0.21
	c-0.18-0.19-0.17-0.46-0.16-0.65c0.02-0.17,0.01-0.35,0.01-0.52c0-0.24,0-0.48,0.03-0.72c0.19-1.25,1.04-2.01,2.27-2.02
	c2.62-0.03,5.36-0.03,8.13,0c1.27,0.01,2.16,0.82,2.31,2.11C42.25,13.86,42.24,14.18,42.24,14.49z M22.69,14.52c0,0.15,0,0.3,0,0.44
	v0c0,0.19-0.05,0.33-0.15,0.43c-0.16,0.16-0.38,0.15-0.54,0.15l-0.07,0l-5.66,0l-1.46,0c-1.36,0-2.73,0-4.09,0.01
	c-0.01,0-0.02,0-0.02,0c-0.21,0-0.47-0.03-0.64-0.21c-0.13-0.14-0.18-0.34-0.15-0.61c0.02-0.18,0.01-0.35,0.01-0.53
	c0-0.16-0.01-0.33,0-0.49c0.07-1.35,1.01-2.27,2.32-2.29c2.63-0.03,5.36-0.03,8.13,0c1.25,0.01,2.12,0.81,2.29,2.07
	C22.7,13.84,22.69,14.19,22.69,14.52z M2.8,21.82c0.22-2.21,2.18-4.24,4.38-4.54c0.55-0.07,1.06-0.11,1.56-0.11c0,0,0.01,0,0.01,0
	c11.64,0.01,23.28,0.01,34.92,0c0,0,0,0,0,0c2.01,0,3.52,0.68,4.62,2.09c0.64,0.82,1.01,1.77,1.1,2.82
	c0.01,0.15,0.01,0.37-0.14,0.52c-0.12,0.12-0.29,0.14-0.4,0.14c-0.04,0-0.07,0-0.09,0c-0.09-0.01-0.17,0-0.26,0l-0.14,0l-44.74,0
	c-0.38,0-0.59,0-0.74-0.16C2.74,22.42,2.76,22.21,2.8,21.82z M6.74,30.09c0,0.38,0,0.59-0.15,0.75c-0.13,0.13-0.29,0.15-0.56,0.15
	c-0.06,0-0.13,0-0.2,0l-0.32,0l-0.34,0c-0.39,0-0.61,0.01-0.76-0.15c-0.16-0.16-0.15-0.38-0.15-0.77l0-0.35l0-0.31
	c-0.01-0.39-0.01-0.6,0.15-0.76c0.15-0.16,0.37-0.15,0.75-0.15l0.7,0c0.38-0.01,0.59,0,0.74,0.15c0.16,0.15,0.15,0.36,0.15,0.75
	V30.09z M47.9,30.07c0.01,0.39,0.01,0.61-0.15,0.77c-0.13,0.13-0.3,0.15-0.57,0.15c-0.06,0-0.13,0-0.2,0l-0.34,0l-0.31,0
	c-0.39,0.01-0.61,0.01-0.77-0.15c-0.16-0.16-0.15-0.37-0.15-0.77l0-0.33l0-0.32c-0.01-0.39-0.01-0.6,0.15-0.76
	c0.16-0.16,0.37-0.15,0.76-0.15c0.11,0,0.23,0,0.38,0h0.31c0.39,0,0.59,0,0.74,0.15c0.16,0.16,0.15,0.37,0.15,0.76l0,0.31
	L47.9,30.07z M49.07,26.87l-46.51,0c-0.88,0-0.99-0.11-0.99-0.97c0-0.7,0-1.05,0.23-1.28c0.23-0.23,0.59-0.23,1.29-0.23l46.46,0
	c0.9,0,1.01,0.11,1.01,1c0,0.69,0,1.03-0.23,1.26C50.11,26.87,49.76,26.87,49.07,26.87z"/>
</svg>
