<?xml version="1.0" encoding="utf-8"?>
<!-- Generator: Adobe Illustrator 24.2.1, SVG Export Plug-In . SVG Version: 6.00 Build 0)  -->
<svg version="1.1" id="Layer_1" xmlns="http://www.w3.org/2000/svg" xmlns:xlink="http://www.w3.org/1999/xlink" x="0px" y="0px"
	 viewBox="0 0 33 33.27" style="enable-background:new 0 0 33 33.27;" xml:space="preserve">
<style type="text/css">
	.st0{stroke:#000000;stroke-width:0.25;stroke-miterlimit:10;}
	.st1{stroke:#000000;stroke-width:0.5;stroke-miterlimit:10;}
	.st2{fill:#FFFFFF;}
	.st3{fill:#FFFFFF;stroke:#FFFFFF;stroke-width:0.25;stroke-miterlimit:10;}
	.st4{fill:#FFFFFF;stroke:#FFFFFF;stroke-width:0.5;stroke-miterlimit:10;}
</style>
<path class="st2" d="M-0.02,23.79c0.12-0.13,0.24-0.27,0.37-0.4C7.95,15.8,15.54,8.21,23.13,0.62c0.11-0.11,0.24-0.22,0.36-0.32
	c0.15,0,0.3,0,0.45,0c0.13,0.11,0.27,0.22,0.39,0.34c2.76,2.76,5.52,5.52,8.29,8.28c0.51,0.51,0.5,0.71-0.01,1.23
	C25.01,17.73,17.42,25.32,9.84,32.9c-0.52,0.52-0.72,0.52-1.23,0.01c-2.76-2.76-5.52-5.52-8.28-8.29c-0.12-0.12-0.23-0.26-0.34-0.39
	C-0.02,24.09-0.02,23.94-0.02,23.79z M10.21,21.59c0.2,0,0.34,0.1,0.48,0.24c0.37,0.37,0.74,0.74,1.12,1.11c1,1,2.01,2,3,3.01
	c0.17,0.17,0.26,0.18,0.43,0c0.56-0.58,1.13-1.15,1.7-1.71c0.15-0.14,0.16-0.25,0.01-0.4c-0.25-0.23-0.49-0.48-0.73-0.73
	c-0.39-0.39-0.78-0.77-1.15-1.17c-0.31-0.34-0.19-0.82,0.22-0.93c0.24-0.06,0.44,0.04,0.61,0.21c0.58,0.59,1.18,1.15,1.75,1.76
	c0.24,0.25,0.36,0.21,0.57-0.01c0.52-0.55,1.05-1.08,1.59-1.59c0.2-0.19,0.22-0.3,0.01-0.5c-1.34-1.32-2.66-2.65-3.99-3.98
	c-0.39-0.39-0.44-0.71-0.18-0.96c0.26-0.25,0.57-0.19,0.94,0.18c1.34,1.34,2.69,2.68,4.03,4.03c0.15,0.15,0.25,0.18,0.41,0.01
	c0.57-0.59,1.16-1.18,1.75-1.75c0.14-0.13,0.16-0.23,0-0.36c-0.22-0.19-0.41-0.41-0.62-0.61c-0.43-0.43-0.87-0.86-1.3-1.3
	c-0.2-0.2-0.23-0.44-0.09-0.68c0.14-0.23,0.36-0.29,0.61-0.24c0.18,0.04,0.29,0.17,0.42,0.29c0.56,0.56,1.13,1.12,1.68,1.69
	c0.18,0.19,0.3,0.21,0.49,0.01c0.53-0.56,1.08-1.11,1.64-1.64c0.22-0.21,0.18-0.32-0.01-0.51c-1.33-1.31-2.64-2.64-3.96-3.96
	c-0.08-0.08-0.17-0.16-0.24-0.26c-0.17-0.24-0.16-0.49,0.04-0.7c0.2-0.21,0.44-0.21,0.68-0.08c0.12,0.07,0.22,0.18,0.31,0.27
	c1.31,1.31,2.63,2.62,3.93,3.94c0.21,0.21,0.34,0.21,0.54,0c0.37-0.4,0.78-0.77,1.15-1.17c0.22-0.23,0.61-0.41,0.6-0.7
	c-0.01-0.27-0.39-0.46-0.6-0.68c-0.46-0.47-0.93-0.93-1.38-1.39c-0.16-0.16-0.23-0.36-0.15-0.59c0.08-0.21,0.23-0.34,0.45-0.36
	c0.24-0.03,0.41,0.11,0.56,0.26c0.59,0.59,1.19,1.18,1.77,1.78c0.17,0.17,0.28,0.17,0.44,0c0.54-0.56,1.08-1.11,1.64-1.64
	c0.21-0.2,0.21-0.32,0-0.53c-1.98-1.96-3.95-3.94-5.92-5.92c-0.24-0.25-0.36-0.2-0.58,0.02c-2.76,2.78-5.53,5.54-8.3,8.31
	c-4.53,4.53-9.06,9.06-13.59,13.59c-0.15,0.15-0.27,0.24-0.05,0.46c2.03,2.01,4.04,4.03,6.06,6.05c0.17,0.17,0.26,0.14,0.41-0.01
	c0.42-0.44,0.86-0.87,1.29-1.3c0.61-0.61,0.61-0.61-0.01-1.23c-0.48-0.48-0.96-0.95-1.43-1.44c-0.17-0.17-0.27-0.37-0.17-0.61
	c0.07-0.19,0.21-0.32,0.42-0.36c0.24-0.04,0.41,0.07,0.57,0.23c0.58,0.58,1.18,1.16,1.75,1.76c0.19,0.2,0.31,0.24,0.53,0.01
	c0.51-0.55,1.05-1.08,1.59-1.59c0.23-0.22,0.21-0.35-0.01-0.56c-1.32-1.3-2.63-2.62-3.94-3.93c-0.09-0.09-0.19-0.18-0.25-0.29
	C9.54,22.06,9.79,21.6,10.21,21.59z M24.36,2.29c-0.07-0.18-0.22-0.28-0.34-0.4c-0.3-0.31-0.3-0.3-0.61,0
	C16.59,8.72,9.77,15.54,2.95,22.35c-0.49,0.49-0.97,0.97-1.46,1.46c-0.07,0.07-0.2,0.14-0.15,0.22c0.13,0.25,0.34,0.45,0.58,0.59
	c0.18,0.11,0.27-0.12,0.38-0.22c7.27-7.26,14.54-14.53,21.8-21.8c0.06-0.06,0.12-0.12,0.18-0.18C24.31,2.38,24.33,2.33,24.36,2.29z"
	/>
</svg>
