<?xml version="1.0" encoding="utf-8"?>
<!-- Generator: Adobe Illustrator 24.2.1, SVG Export Plug-In . SVG Version: 6.00 Build 0)  -->
<svg version="1.1" id="Layer_1" xmlns="http://www.w3.org/2000/svg" xmlns:xlink="http://www.w3.org/1999/xlink" x="0px" y="0px"
	 viewBox="0 0 51.81 33.08" style="enable-background:new 0 0 51.81 33.08;" xml:space="preserve">
<style type="text/css">
	.st0{stroke:#000000;stroke-width:0.25;stroke-miterlimit:10;}
	.st1{stroke:#000000;stroke-width:0.5;stroke-miterlimit:10;}
	.st2{fill:#FFFFFF;}
	.st3{fill:#FFFFFF;stroke:#FFFFFF;stroke-width:0.25;stroke-miterlimit:10;}
	.st4{fill:#FFFFFF;stroke:#FFFFFF;stroke-width:0.5;stroke-miterlimit:10;}
</style>
<path class="st2" d="M51.79,25.14c-1.3,0.01-2.59,0.02-3.89,0.03c-2.71,0-5.43,0.01-8.14-0.01c-0.4,0-0.54,0.07-0.51,0.53
	c0.06,0.95,0.13,1.92-0.05,2.87c-0.48,2.52-2.66,4.45-5.22,4.47c-5.41,0.04-10.82,0.04-16.22,0c-2.91-0.02-5.3-2.5-5.33-5.42
	c-0.01-0.69-0.05-1.38,0.06-2.07c0.05-0.26-0.05-0.39-0.31-0.38c-0.15,0-0.3,0-0.45,0c-3.69,0-7.38,0-11.07,0
	c-0.67,0-0.67-0.01-0.67-0.68c-0.01-4.32,2.45-8.06,6.42-9.72c0.39-0.16,0.42-0.23,0.09-0.53c-1.85-1.68-2.51-3.78-1.8-6.18
	c0.69-2.33,2.32-3.77,4.74-4.17c3.33-0.54,6.31,1.6,6.84,4.93c0.34,2.15-0.36,3.99-2,5.44c-0.28,0.25-0.35,0.34,0.06,0.5
	c0.94,0.35,1.79,0.86,2.56,1.5c0.2,0.17,0.37,0.27,0.61,0.07c1.23-1,2.61-1.73,4.1-2.25c0.04-0.01,0.08-0.06,0.16-0.12
	c-2.34-1.63-3.53-3.88-3.44-6.71c0.06-2,0.87-3.74,2.34-5.11c3.11-2.9,7.9-2.72,10.69,0.28c2.9,3.12,2.9,8.56-1.35,11.53
	c0.01,0.16,0.16,0.16,0.26,0.19c1.45,0.49,2.77,1.23,3.96,2.18c0.2,0.16,0.36,0.19,0.58,0.02c0.86-0.72,1.81-1.28,2.86-1.68
	c0.06-0.02,0.1-0.07,0.19-0.13c-0.83-0.67-1.51-1.44-1.89-2.41c-0.93-2.34-0.63-4.53,1.08-6.39c1.64-1.8,3.75-2.39,6.08-1.68
	c2.34,0.71,3.77,2.35,4.17,4.79c0.35,2.13-0.37,3.91-1.93,5.37c-0.4,0.37-0.39,0.36,0.11,0.58c3.53,1.58,5.61,4.3,6.28,8.1
	c0.01,0.08,0.04,0.16,0.07,0.24C51.79,23.79,51.79,24.47,51.79,25.14z M25.8,31.28c2.63,0,5.26,0.01,7.88,0
	c2.21-0.01,3.79-1.59,3.83-3.79c0.01-0.77,0-1.54-0.1-2.32c-0.84-6.35-7.02-10.93-13.36-9.89c-4.79,0.79-8.53,4.29-9.61,9.01
	c-0.29,1.28-0.34,2.58-0.21,3.87c0.17,1.73,1.84,3.1,3.74,3.11C20.58,31.29,23.19,31.28,25.8,31.28z M20.06,7.6
	c0,3.2,2.58,5.78,5.78,5.78c3.16,0,5.8-2.64,5.79-5.79c0-3.17-2.63-5.78-5.81-5.78C22.62,1.81,20.06,4.39,20.06,7.6z M44.46,23.39
	c1.63,0,3.27,0,4.9,0c0.68,0,0.7-0.01,0.56-0.67c-1.35-6.44-8.66-9.03-13.72-5.3c-0.38,0.28-0.35,0.47-0.07,0.79
	c1.18,1.37,2.02,2.94,2.55,4.66c0.12,0.39,0.3,0.53,0.72,0.52C41.09,23.38,42.77,23.39,44.46,23.39z M7.3,23.39
	c1.68,0,3.37-0.01,5.05,0.01c0.33,0,0.51-0.09,0.61-0.44c0.51-1.75,1.38-3.32,2.55-4.72c0.44-0.53,0.43-0.55-0.15-0.95
	c-1.69-1.17-3.56-1.7-5.62-1.55c-3.96,0.29-7.22,3.22-7.91,7.11C1.74,23.31,1.88,23.4,2.3,23.4C3.97,23.39,5.63,23.39,7.3,23.39z
	 M41.38,13.91c2.31,0.01,4.2-1.83,4.22-4.13c0.02-2.35-1.82-4.23-4.15-4.24c-2.35-0.02-4.2,1.79-4.24,4.15
	C37.16,12.01,39.03,13.9,41.38,13.91z M10.37,13.91c2.34,0,4.2-1.86,4.19-4.2c-0.01-2.31-1.86-4.16-4.18-4.17
	C8.04,5.53,6.17,7.39,6.16,9.72C6.16,12.05,8.03,13.92,10.37,13.91z"/>
</svg>
