<?xml version="1.0" encoding="utf-8"?>
<!-- Generator: Adobe Illustrator 24.2.1, SVG Export Plug-In . SVG Version: 6.00 Build 0)  -->
<svg version="1.1" id="Layer_1" xmlns="http://www.w3.org/2000/svg" xmlns:xlink="http://www.w3.org/1999/xlink" x="0px" y="0px"
	 viewBox="0 0 52.82 33.78" style="enable-background:new 0 0 52.82 33.78;" xml:space="preserve">
<style type="text/css">
	.st0{stroke:#000000;stroke-width:0.25;stroke-miterlimit:10;}
	.st1{stroke:#000000;stroke-width:0.5;stroke-miterlimit:10;}
	.st2{fill:#FFFFFF;}
	.st3{fill:#FFFFFF;stroke:#FFFFFF;stroke-width:0.25;stroke-miterlimit:10;}
	.st4{fill:#FFFFFF;stroke:#FFFFFF;stroke-width:0.5;stroke-miterlimit:10;}
</style>
<path class="st4" d="M52.27,26.28c-0.64,0.58-2.13,0.75-2.89,0.32c-0.41-0.23-0.63-0.6-0.67-1.07c-0.02-0.22-0.05-0.39-0.27-0.49
	c-0.83-0.39-1.38-1.07-1.88-1.8c-0.12-0.18-0.25-0.35-0.44-0.47c-1.61-1.09-3.44-1.28-5.34-1.27c0.15,0.48,0.48,0.85,0.71,1.27
	c0.97,1.72,1.85,3.49,3.22,4.95c1.09,1.15,2.17,2.31,3.26,3.46c0.21,0.22,0.42,0.44,0.55,0.72c0.26,0.6,0.03,1.16-0.61,1.28
	c-0.85,0.17-1.71,0.16-2.56-0.03c-0.55-0.13-0.8-0.55-0.85-1.07c-0.03-0.3-0.15-0.44-0.42-0.54c-0.65-0.25-0.97-0.81-1.19-1.43
	c-0.1-0.28-0.21-0.53-0.4-0.75c-2.09-2.41-3.95-5-5.89-7.53c-0.5-0.65-0.6-0.67-1.36-0.38c-4.3,1.68-8.58,1.72-12.83-0.15
	c-0.26-0.11-0.45-0.1-0.71,0.03c-0.62,0.32-1.12,0.68-1.45,1.37c-0.51,1.06-1.55,1.44-2.67,1.58c-0.47,0.06-0.94,0.1-1.41,0.1
	c-1.01,0-1.63,0.52-2.04,1.39c-0.38,0.81-0.42,1.66-0.33,2.52c0,0.05,0.03,0.1,0.02,0.15c-0.07,0.68,0.22,1.06,0.84,1.4
	c0.9,0.5,1.31,1.47,1.78,2.34c0.24,0.45-0.02,0.9-0.54,1.13c-1.06,0.46-2.35,0-2.89-1.04c-0.09-0.17-0.21-0.24-0.37-0.31
	c-1.37-0.58-1.51-0.82-1.46-2.33c0.04-1.3-0.02-2.59,0.1-3.89c0.06-0.69,0.25-1.35,0.4-2.11c-0.6,0.26-1.08,0.58-1.55,0.92
	c-1.1,0.78-2.15,1.63-3.15,2.54c-0.23,0.2-0.43,0.42-0.58,0.69c-0.4,0.71-1.04,1.06-1.83,1.07c-0.42,0.01-0.79,0.1-1.15,0.3
	c-0.64,0.35-1.33,0.47-2.05,0.41c-0.58-0.04-0.99-0.43-0.88-0.95c0.21-0.97,0.86-2.29,2.13-2.4c0.24-0.02,0.49-0.04,0.69,0.1
	c0.3,0.22,0.5,0.13,0.73-0.12c0.26-0.28,0.56-0.54,0.87-0.77c1.29-0.98,2.56-1.96,3.67-3.17c1.15-1.26,2.56-2.24,3.93-3.24
	c0.59-0.43,0.87-0.99,0.86-1.77c-0.01-1.01,0.17-2.01,0.53-2.97c0.04-0.12,0.15-0.23,0.06-0.44c-0.75,0.46-1.52,0.86-2.31,1.23
	c-2.6,1.19-5.32,2.04-8.06,2.81c-0.3,0.08-0.61,0.17-0.84-0.11c-0.23-0.27-0.07-0.54,0.04-0.81c1.24-2.93,3.42-4.84,6.4-5.86
	c2.16-0.74,4.39-1.02,6.67-0.81c0.29,0.03,0.56-0.03,0.83-0.16c1.88-0.93,3.82-1.03,5.79-0.37c1.13,0.38,2.28,0.56,3.48,0.54
	c0.82-0.01,1.65,0.01,2.48,0.07c1.91,0.14,3.59-0.45,5-1.76c1.39-1.28,2.78-2.55,4.41-3.54c1.43-0.86,2.91-1.57,4.61-1.67
	c0.27-0.02,0.38-0.19,0.49-0.38c0.4-0.67,0.79-1.34,1.19-2c0.16-0.26,0.31-0.56,0.68-0.51c0.4,0.06,0.45,0.41,0.52,0.72
	c0.06,0.26,0.13,0.53,0.15,0.79c0.1,1.51,1.03,2.6,1.87,3.73c0.8,1.09,1.72,2.07,2.71,2.99c0.58,0.53,1.08,1.16,0.9,2.03
	c-0.24,1.2-1.63,1.91-2.86,1.51c-0.6-0.2-1.13-0.53-1.59-0.96c-0.3-0.28-0.62-0.44-1.01-0.53c-0.48-0.11-0.93-0.29-1.36-0.55
	c-0.2-0.12-0.33-0.1-0.45,0.12c-0.75,1.45-1.87,2.59-3.05,3.68c-0.95,0.88-0.9,2.01-0.82,3.14c0.02,0.23,0.23,0.29,0.44,0.36
	c1.74,0.52,3.43,1.19,5.21,1.63c0.83,0.2,1.47,0.81,2.1,1.38c1.49,1.34,2.89,2.78,4.24,4.27c0.2,0.23,0.4,0.46,0.52,0.75
	C52.27,25.81,52.27,26.05,52.27,26.28z M4.07,16.55c0.06,0.02,0.1,0.04,0.12,0.03c0.39-0.11,0.78-0.22,1.16-0.34
	c2.66-0.83,5.29-1.71,7.72-3.12c0.5-0.29,0.95-0.63,1.4-0.99c0.29-0.23,0.62-0.28,0.94-0.07c0.25,0.16,0.37,0.39,0.32,0.69
	c-0.04,0.24-0.13,0.46-0.27,0.65c-0.88,1.2-1.17,2.57-1.13,4.01c0.03,0.85-0.3,1.5-0.89,2.06c-0.39,0.37-0.79,0.74-1.25,1.02
	c-0.81,0.49-1.51,1.13-2.21,1.77c-1.23,1.12-2.29,2.43-3.7,3.36c-0.56,0.37-1.17,0.73-1.55,1.28c-0.43,0.62-1,0.64-1.61,0.52
	c-0.82-0.17-1.04-0.07-1.39,0.68c-0.19,0.39-0.02,0.43,0.31,0.4c0.45-0.04,0.84-0.24,1.22-0.45c0.27-0.15,0.53-0.23,0.86-0.2
	c0.48,0.04,0.99-0.03,1.25-0.5c0.36-0.64,0.92-1.07,1.45-1.54c1.77-1.55,3.65-2.94,5.83-3.87c0.53-0.23,1.09-0.41,1.67-0.3
	c2.08,0.4,4.07,0.03,5.98-0.77c1.61-0.68,3-1.61,2.92-3.68c-0.01-0.33,0.16-0.62,0.54-0.6c0.37,0.02,0.47,0.31,0.5,0.65
	c0.07,1.03-0.24,1.93-0.88,2.72c-0.41,0.51-0.4,0.52,0.22,0.75c2.49,0.92,5.06,1.11,7.67,0.77c0.84-0.11,1.67-0.28,2.53-0.64
	c-0.42-0.21-0.77-0.37-1.11-0.56c-0.57-0.32-1.08-0.7-1.4-1.28c-0.16-0.29-0.22-0.6,0.11-0.8c0.33-0.21,0.58-0.03,0.75,0.26
	c0.18,0.3,0.43,0.52,0.71,0.71c0.82,0.57,1.76,0.83,2.72,1.02c1.64,0.33,3.29,0.17,4.94,0.23c2.01,0.07,4.01,0.15,5.79,1.3
	c0.43,0.28,0.82,0.55,1.11,0.99c0.48,0.72,1.01,1.39,1.95,1.57c0.31,0.06,0.4,0.35,0.36,0.64c-0.12,0.93,0.25,0.87,0.93,0.85
	c0.11,0,0.26,0.05,0.32-0.08c0.06-0.13-0.07-0.21-0.15-0.29c-1.41-1.52-2.83-3.03-4.41-4.39c-0.57-0.49-1.2-0.85-1.95-1.02
	c-1.22-0.27-2.41-0.65-3.56-1.13c-0.42-0.18-0.85-0.31-1.32-0.34c-0.35-0.02-0.59-0.18-0.73-0.52c-0.48-1.21-0.18-3.75,1-4.75
	c1.35-1.14,2.58-2.43,3.16-4.19c0.15-0.46,0.55-0.52,0.92-0.17c0.46,0.42,0.98,0.75,1.57,0.87c0.67,0.14,1.21,0.46,1.71,0.92
	c0.35,0.32,0.74,0.59,1.22,0.69c0.52,0.12,1.06-0.13,1.33-0.62c0.24-0.44-0.09-0.72-0.32-1.03c-0.08-0.11-0.18-0.2-0.28-0.29
	c-1.01-0.9-1.92-1.9-2.71-2.99c-0.85-1.18-1.88-2.27-2.04-3.82c0-0.02-0.05-0.04-0.11-0.08c-0.28,0.48-0.57,0.95-0.85,1.43
	c-0.18,0.31-0.42,0.48-0.78,0.47c-1.44-0.03-2.7,0.54-3.92,1.2c-1.78,0.97-3.27,2.31-4.73,3.69c-1.24,1.17-2.7,1.86-4.42,2.03
	c-1.25,0.12-2.49-0.08-3.73-0.05c-1.29,0.03-2.55-0.15-3.78-0.57c-1.8-0.63-3.58-0.52-5.28,0.38c-0.24,0.13-0.49,0.24-0.77,0.2
	c-1.08-0.14-2.15-0.1-3.23,0c-2.33,0.21-4.5,0.86-6.38,2.3C5.48,14.4,4.63,15.36,4.07,16.55z M47.35,32.22
	c0.02-0.04,0.04-0.08,0.06-0.12c-0.64-0.67-1.29-1.32-1.92-2c-1.29-1.39-2.63-2.76-3.57-4.44c-0.58-1.03-1.13-2.07-1.76-3.07
	c-0.91-1.44-0.51-1.1-2.11-1.14c-0.02,0-0.03,0-0.05,0c-0.1,0.01-0.22-0.03-0.28,0.07c-0.07,0.11,0.04,0.19,0.1,0.26
	c1.81,2.33,3.52,4.73,5.46,6.96c0.24,0.27,0.41,0.56,0.52,0.91c0.25,0.81,0.4,0.91,1.24,0.97c0.48,0.03,0.66,0.26,0.58,0.73
	c-0.02,0.12-0.06,0.23-0.08,0.34c-0.07,0.33,0.04,0.53,0.4,0.53C46.41,32.22,46.88,32.22,47.35,32.22z M19.24,22.33
	c-1.12,0.3-2.13,0.43-3.15,0.48c-0.55,0.02-1.07-0.06-1.61-0.11c-1.1-0.1-1.49,0.01-1.78,1.06c-0.27,0.94-0.47,1.89-0.48,2.88
	c-0.01,0.94,0,1.89-0.07,2.83c-0.08,1.15-0.03,1.27,1.08,1.61c0.06,0.02,0.13,0.03,0.2,0.05c0.3,0.08,0.48,0.28,0.57,0.59
	c0.19,0.65,0.67,0.86,1.32,0.61c-0.21-0.35-0.4-0.71-0.64-1.03c-0.29-0.4-0.62-0.77-1.15-0.83c-0.5-0.06-0.7-0.34-0.72-0.81
	c-0.02-0.5,0.01-1.02-0.06-1.51c-0.13-0.93,0.02-1.82,0.38-2.67c0.49-1.18,1.32-1.97,2.67-2.09c0.75-0.07,1.52-0.04,2.26-0.25
	C18.48,23.01,18.88,22.83,19.24,22.33z"/>
</svg>
