<?xml version="1.0" encoding="utf-8"?>
<!-- Generator: Adobe Illustrator 24.2.1, SVG Export Plug-In . SVG Version: 6.00 Build 0)  -->
<svg version="1.1" id="Layer_1" xmlns="http://www.w3.org/2000/svg" xmlns:xlink="http://www.w3.org/1999/xlink" x="0px" y="0px"
	 viewBox="0 0 43.9 33.78" style="enable-background:new 0 0 43.9 33.78;" xml:space="preserve">
<style type="text/css">
	.st0{stroke:#000000;stroke-width:0.25;stroke-miterlimit:10;}
	.st1{stroke:#000000;stroke-width:0.5;stroke-miterlimit:10;}
	.st2{fill:#FFFFFF;}
	.st3{fill:#FFFFFF;stroke:#FFFFFF;stroke-width:0.25;stroke-miterlimit:10;}
	.st4{fill:#FFFFFF;stroke:#FFFFFF;stroke-width:0.5;stroke-miterlimit:10;}
</style>
<g>
	<path class="st2" d="M43.47,23.2c-0.23,0.28-0.53,0.38-0.89,0.37c-2.05-0.01-4.11,0-6.16-0.01c-0.66,0-0.87-0.16-0.96-0.81
		c-0.29-2.35-1.03-4.54-2.13-6.63c-0.23-0.43-0.11-0.85,0.24-1.02c0.36-0.18,0.74-0.02,0.97,0.41c1.02,1.91,1.76,3.92,2.12,6.06
		c0.1,0.6,0.11,0.6,0.72,0.6c1.38,0,2.76,0,4.14,0c0.59,0,0.61-0.02,0.57-0.63c-0.23-3.19-1.09-6.19-2.65-8.98
		c-0.63-1.12-1.35-2.17-2.16-3.17c-0.12-0.15-0.24-0.32-0.32-0.49c-0.14-0.29-0.03-0.55,0.19-0.76c0.22-0.2,0.48-0.23,0.74-0.08
		C38,8.15,38.1,8.25,38.19,8.35c2.72,3.25,4.42,6.96,5.06,11.15c0.08,0.53,0.15,1.06,0.22,1.58C43.47,21.79,43.47,22.49,43.47,23.2z
		"/>
	<path class="st2" d="M20.97,33.37c-1.26-0.06-2.24-0.6-2.82-1.71c-0.58-1.1-0.58-2.25,0.14-3.28c1.07-1.55,2.31-2.98,3.47-4.46
		c4.8-6.07,9.6-12.13,14.41-18.19c0.04-0.06,0.09-0.11,0.13-0.17c0.32-0.38,0.71-0.48,1.03-0.25c0.31,0.22,0.37,0.59,0.14,1.02
		c-2.69,5.02-5.39,10.04-8.08,15.05c-1.77,3.3-3.54,6.59-5.3,9.89c-0.57,1.06-1.34,1.83-2.57,2.05
		C21.33,33.34,21.15,33.35,20.97,33.37z M32.43,12.78c-0.02-0.01-0.04-0.02-0.07-0.03c-0.06,0.07-0.13,0.15-0.19,0.22
		c-3.41,4.31-6.83,8.62-10.24,12.93c-0.81,1.03-1.63,2.04-2.42,3.09c-0.59,0.78-0.49,1.82,0.18,2.46c0.68,0.65,1.71,0.7,2.47,0.11
		c0.32-0.25,0.51-0.6,0.69-0.95c2.56-4.77,5.13-9.54,7.69-14.31C31.18,15.13,31.81,13.96,32.43,12.78z"/>
	<path class="st2" d="M34.13,4.6c-3.92-2.77-8.27-4.19-13.07-4.23c-1.84-0.02-3.64,0.21-5.41,0.64c-0.2,0.05-0.39,0.1-0.59,0.15
		c-0.02,0-0.03,0.01-0.05,0.01c-0.55,0.15-1.1,0.32-1.64,0.52C12.51,2,11.67,2.36,10.84,2.77c-0.62,0.31-1.23,0.63-1.8,1.02
		c-0.04,0.02-0.07,0.05-0.1,0.08c-3.78,2.4-6.62,5.69-8.53,9.85c-0.08,0.17-0.15,0.34-0.18,0.51c-0.06,0.29,0.03,0.53,0.29,0.69
		c0.27,0.16,0.54,0.15,0.78-0.06c0.14-0.12,0.25-0.26,0.36-0.41c1.76-2.51,3.99-4.49,6.71-5.91c3.36-1.75,6.94-2.37,10.7-1.97
		c2.55,0.27,4.93,1.07,7.16,2.35c1.26,0.73,2.41,1.6,3.49,2.57c0.39,0.35,0.81,0.34,1.08,0.03c0.28-0.33,0.23-0.69-0.18-1.07
		C28.92,8.88,27,7.62,24.86,6.69C22.15,5.52,19.31,5,16.36,5.1c-2.2,0.07-4.32,0.48-6.38,1.25C8.33,6.95,6.79,7.76,5.31,8.74
		c0.07-0.09,0.13-0.18,0.2-0.26c1.51-1.59,3.21-2.95,5.13-4.02c0.19-0.11,0.39-0.21,0.58-0.32c2.39-1.24,4.95-1.99,7.66-2.27
		c2.1-0.22,4.18-0.1,6.25,0.31c1.6,0.31,3.12,0.85,4.61,1.48c0.04,0.02,0.08,0.03,0.12,0.04c1.23,0.57,2.39,1.28,3.52,2.04
		c0.43,0.3,0.85,0.22,1.07-0.14C34.66,5.27,34.55,4.89,34.13,4.6z"/>
	<path class="st2" d="M21.44,30.35c-0.01,0.36-0.33,0.65-0.7,0.64c-0.37-0.01-0.67-0.32-0.66-0.68c0.01-0.36,0.32-0.65,0.7-0.64
		C21.15,29.68,21.45,29.99,21.44,30.35z"/>
</g>
</svg>
