<?xml version="1.0" encoding="utf-8"?>
<!-- Generator: Adobe Illustrator 24.2.1, SVG Export Plug-In . SVG Version: 6.00 Build 0)  -->
<svg version="1.1" id="Layer_1" xmlns="http://www.w3.org/2000/svg" xmlns:xlink="http://www.w3.org/1999/xlink" x="0px" y="0px"
	 viewBox="0 0 33.21 38.5" style="enable-background:new 0 0 33.21 38.5;" xml:space="preserve">
<style type="text/css">
	.st0{stroke:#000000;stroke-width:0.25;stroke-miterlimit:10;}
	.st1{stroke:#000000;stroke-width:0.5;stroke-miterlimit:10;}
	.st2{fill:#FFFFFF;}
	.st3{fill:#FFFFFF;stroke:#FFFFFF;stroke-width:0.25;stroke-miterlimit:10;}
	.st4{fill:#FFFFFF;stroke:#FFFFFF;stroke-width:0.5;stroke-miterlimit:10;}
</style>
<g>
	<path class="st2" d="M16.61,0.02c0.94,0,1.88,0,2.82,0c0.59,0,0.81,0.21,0.81,0.8c0,0.75,0,1.51,0,2.26c0,0.59-0.21,0.81-0.78,0.84
		c-0.91,0.05-0.91,0.05-0.91,0.98c0,0.67-0.01,0.65,0.6,0.74c1.24,0.18,2.45,0.51,3.6,1c0.28,0.12,0.4,0.04,0.54-0.21
		c0.42-0.77,0.86-1.52,1.3-2.28c0.31-0.54,0.59-0.62,1.12-0.31c0.67,0.38,1.33,0.76,1.99,1.15c0.48,0.28,0.55,0.55,0.28,1.04
		c-0.44,0.79-0.88,1.57-1.35,2.34c-0.15,0.24-0.14,0.38,0.1,0.56c3.2,2.53,5.28,5.79,6.05,9.81c1.03,5.41-0.31,10.22-3.95,14.34
		c-2.56,2.89-5.8,4.65-9.61,5.23c-5.22,0.79-9.85-0.6-13.78-4.16c-2.94-2.67-4.71-6.02-5.18-9.95c-0.73-6.1,1.33-11.15,6.03-15.11
		c0.57-0.48,0.5-0.33,0.17-0.91c-0.39-0.7-0.81-1.4-1.2-2.1c-0.3-0.53-0.23-0.79,0.29-1.1C6.19,4.58,6.85,4.2,7.52,3.82
		c0.49-0.28,0.78-0.2,1.07,0.29c0.45,0.78,0.91,1.56,1.34,2.35c0.13,0.24,0.26,0.28,0.51,0.18c1.23-0.51,2.51-0.86,3.84-1.03
		c0.27-0.04,0.37-0.15,0.37-0.42c-0.01-0.3-0.01-0.59,0-0.89c0.01-0.28-0.12-0.38-0.39-0.38c-0.24,0.01-0.48,0-0.72-0.02
		c-0.37-0.04-0.58-0.27-0.59-0.65c-0.01-0.86-0.01-1.72,0-2.58c0.01-0.42,0.26-0.64,0.72-0.64C14.65,0.02,15.63,0.02,16.61,0.02z
		 M16.57,37.27c8.15,0.09,15.31-6.6,15.31-15.36c0-8.42-6.86-15.23-15.29-15.25C8.34,6.64,1.31,13.34,1.3,22
		C1.3,30.44,8.15,37.28,16.57,37.27z M16.59,2.69c0.5,0,0.99,0.01,1.49,0c1.05-0.02,0.9,0.17,0.93-0.95
		c0.01-0.37-0.12-0.49-0.49-0.49c-1.11,0.02-2.22,0-3.34,0.01c-1.15,0.01-0.99-0.18-1.01,1.04c-0.01,0.3,0.11,0.4,0.4,0.39
		C15.25,2.68,15.92,2.69,16.59,2.69z M7.62,5.17C7.36,5.32,7.06,5.5,6.75,5.67c-0.2,0.11-0.21,0.24-0.1,0.43
		C6.98,6.65,7.3,7.21,7.62,7.77c0.1,0.17,0.2,0.22,0.38,0.1c0.25-0.16,0.5-0.31,0.77-0.44c0.19-0.1,0.2-0.21,0.1-0.39
		C8.54,6.49,8.22,5.92,7.9,5.37C7.85,5.27,7.8,5.17,7.62,5.17z M26.61,5.93c0.02-0.16-0.08-0.21-0.17-0.26
		c-0.23-0.14-0.47-0.26-0.69-0.41c-0.22-0.14-0.36-0.09-0.48,0.13c-0.3,0.54-0.6,1.08-0.92,1.61c-0.12,0.2-0.12,0.33,0.11,0.44
		c0.24,0.12,0.48,0.25,0.7,0.4c0.21,0.14,0.32,0.1,0.44-0.11c0.3-0.54,0.61-1.07,0.92-1.61C26.55,6.06,26.58,5.99,26.61,5.93z
		 M17.3,4.71c0-0.09-0.01-0.19,0-0.28c0.05-0.38-0.1-0.52-0.49-0.51c-1.07,0.03-0.91-0.1-0.93,0.92c0,0.09,0,0.19,0,0.28
		c-0.01,0.22,0.09,0.33,0.31,0.31c0.13-0.01,0.27,0,0.4,0C17.36,5.43,17.3,5.52,17.3,4.71z"/>
	<path class="st2" d="M16.6,34.83c-7,0.02-12.82-5.76-12.85-12.76C3.73,15.06,9.3,9.11,16.61,9.12c7.23,0.01,12.78,5.84,12.82,12.77
		C29.47,29.02,23.71,34.81,16.6,34.83z M15.65,10.38c-1.49,0.14-2.8,0.5-4.05,1.1c-0.29,0.14-0.3,0.28-0.14,0.52
		c0.16,0.25,0.31,0.5,0.45,0.76c0.2,0.38,0.13,0.71-0.16,0.89c-0.31,0.19-0.66,0.09-0.89-0.28c-0.18-0.28-0.35-0.57-0.51-0.87
		c-0.1-0.19-0.21-0.21-0.38-0.09c-1.17,0.82-2.16,1.81-2.97,2.99c-0.11,0.16-0.09,0.26,0.08,0.35c0.28,0.15,0.56,0.32,0.84,0.49
		c0.41,0.25,0.53,0.57,0.33,0.9c-0.19,0.32-0.53,0.38-0.95,0.14c-0.25-0.14-0.5-0.27-0.73-0.43C6.34,16.7,6.22,16.73,6.09,17
		c-0.59,1.26-0.92,2.58-1.08,3.95c-0.03,0.3,0.08,0.42,0.38,0.4c0.33-0.02,0.67-0.02,1.01,0.01c0.35,0.03,0.58,0.25,0.58,0.61
		c0,0.36-0.23,0.56-0.58,0.61c-0.15,0.02-0.29,0.01-0.44,0.01c-0.96,0-0.98,0-0.87,0.96c0.15,1.22,0.52,2.39,1.05,3.5
		c0.1,0.21,0.21,0.24,0.4,0.12c0.28-0.18,0.58-0.35,0.87-0.51c0.36-0.2,0.69-0.13,0.88,0.17c0.19,0.3,0.1,0.63-0.25,0.86
		c-0.28,0.18-0.57,0.35-0.86,0.52c-0.19,0.11-0.24,0.22-0.1,0.41c0.81,1.14,1.78,2.12,2.93,2.92c0.21,0.15,0.32,0.1,0.44-0.11
		c0.16-0.3,0.33-0.59,0.51-0.87c0.22-0.33,0.53-0.42,0.83-0.25c0.3,0.18,0.39,0.52,0.2,0.87c-0.16,0.3-0.33,0.59-0.5,0.87
		c-0.12,0.19-0.11,0.3,0.11,0.4c1.3,0.62,2.66,1,4.1,1.1c0.29,0.02,0.34-0.09,0.33-0.34c-0.01-0.34-0.01-0.67,0-1.01
		c0.02-0.37,0.24-0.6,0.57-0.6c0.34-0.01,0.59,0.23,0.6,0.61c0.01,0.35,0.01,0.7,0,1.05c-0.01,0.22,0.06,0.31,0.3,0.29
		c1.47-0.1,2.85-0.48,4.17-1.12c0.21-0.1,0.24-0.22,0.12-0.41c-0.18-0.3-0.37-0.6-0.52-0.91c-0.18-0.35-0.08-0.68,0.21-0.84
		c0.29-0.16,0.63-0.07,0.83,0.25c0.18,0.28,0.36,0.57,0.51,0.87c0.11,0.21,0.21,0.27,0.43,0.12c1.15-0.82,2.13-1.81,2.94-2.97
		c0.13-0.18,0.08-0.28-0.1-0.38c-0.29-0.16-0.59-0.33-0.87-0.51c-0.37-0.23-0.47-0.54-0.3-0.85c0.18-0.32,0.52-0.4,0.91-0.2
		c0.3,0.16,0.59,0.33,0.87,0.5c0.18,0.11,0.28,0.08,0.37-0.11c0.62-1.29,0.97-2.65,1.11-4.06c0.03-0.27-0.09-0.36-0.35-0.35
		c-0.32,0.01-0.65,0.01-0.97-0.01c-0.41-0.02-0.66-0.28-0.66-0.62c0-0.34,0.26-0.59,0.67-0.61c0.32-0.02,0.64-0.02,0.97,0
		c0.27,0.01,0.36-0.11,0.34-0.36c-0.15-1.43-0.5-2.8-1.13-4.1c-0.1-0.22-0.21-0.23-0.4-0.11c-0.27,0.17-0.55,0.33-0.84,0.49
		c-0.39,0.21-0.73,0.15-0.92-0.15c-0.19-0.31-0.09-0.64,0.29-0.88c0.27-0.17,0.55-0.33,0.83-0.49c0.18-0.1,0.25-0.21,0.11-0.41
		c-0.81-1.16-1.8-2.14-2.96-2.94c-0.17-0.12-0.28-0.1-0.38,0.09c-0.17,0.31-0.34,0.61-0.53,0.91c-0.22,0.34-0.56,0.44-0.86,0.25
		c-0.3-0.18-0.37-0.52-0.17-0.88c0.17-0.31,0.34-0.61,0.52-0.91c0.1-0.17,0.07-0.26-0.1-0.34c-1.32-0.64-2.71-1.03-4.17-1.12
		c-0.22-0.01-0.29,0.06-0.28,0.27c0.01,0.36,0.01,0.73,0,1.09c-0.02,0.37-0.25,0.59-0.58,0.6c-0.33,0-0.57-0.22-0.59-0.58
		c-0.02-0.31-0.03-0.62,0-0.93C16.04,10.45,15.92,10.3,15.65,10.38z"/>
	<path class="st2" d="M17.19,16.6c0,0.82,0.01,1.64,0,2.46c0,0.23,0.07,0.36,0.3,0.45c0.74,0.27,1.28,0.79,1.55,1.54
		c0.09,0.26,0.25,0.3,0.49,0.3c1.56-0.01,3.11,0,4.67,0c0.63,0,0.95,0.21,0.95,0.62c0,0.41-0.32,0.62-0.95,0.62
		c-1.53,0-3.06,0.01-4.59-0.01c-0.3,0-0.47,0.07-0.6,0.38c-0.42,1.07-1.6,1.77-2.66,1.62c-1.24-0.17-2.18-1.07-2.33-2.23
		c-0.16-1.22,0.45-2.33,1.59-2.79c0.34-0.14,0.42-0.32,0.42-0.66c-0.02-1.6-0.01-3.2,0-4.8c0-0.46,0.22-0.69,0.61-0.68
		c0.36,0.01,0.57,0.23,0.57,0.63C17.19,14.91,17.19,15.76,17.19,16.6C17.19,16.6,17.19,16.6,17.19,16.6z M16.59,23.37
		c0.77,0,1.4-0.61,1.41-1.37c0.01-0.79-0.61-1.42-1.4-1.42c-0.79,0-1.43,0.64-1.42,1.41C15.2,22.75,15.82,23.36,16.59,23.37z"/>
</g>
</svg>
