<svg id="Layer_1" data-name="Layer 1" xmlns="http://www.w3.org/2000/svg" viewBox="0 0 33.67 33.34"><defs><style>.cls-1{stroke:#000;stroke-miterlimit:10;stroke-width:0.25px;}</style></defs><path class="cls-1" d="M.24,14.28a17.25,17.25,0,0,1,.43-2.47A14.71,14.71,0,0,1,11.81.82a14.26,14.26,0,0,1,11.62,2,14.79,14.79,0,0,1,6.83,10.6c0,.3.06.6.09.91,0,.08,0,.19.08.23s.15-.07.21-.12l1.71-1.71a2.79,2.79,0,0,1,.32-.28.53.53,0,0,1,.71.09.55.55,0,0,1,.08.72,1.71,1.71,0,0,1-.22.25L30.4,16.3c-.44.44-.72.44-1.16,0l-2.82-2.82a1.81,1.81,0,0,1-.25-.3.57.57,0,0,1,.11-.72.55.55,0,0,1,.75,0,4.35,4.35,0,0,1,.38.36l1.77,1.77a13.54,13.54,0,0,0-1.29-5,13.78,13.78,0,0,0-5.71-6.16,13.07,13.07,0,0,0-5.51-1.72c-.77-.06-.77-.06-.78.71,0,.26,0,.52,0,.78a.58.58,0,0,1-1.16.08A7.8,7.8,0,0,1,14.7,2c0-.26-.08-.37-.36-.35A13.91,13.91,0,0,0,1.74,12.47a15.43,15.43,0,0,0-.3,2c0,.26.06.38.34.37.49,0,1,0,1.47,0h.16c.5,0,.78.26.76.63s-.29.56-.8.56H1.77c-.26,0-.36.07-.34.33A13.39,13.39,0,0,0,2,19.48a13.7,13.7,0,0,0,8.47,9,13.11,13.11,0,0,0,4.11.86c.59,0,.91.39.72.83a.64.64,0,0,1-.7.37A14.35,14.35,0,0,1,10,29.63,15,15,0,0,1,.37,17.7c-.06-.33-.09-.66-.13-1Z"/><path class="cls-1" d="M28.68,32.5a.69.69,0,0,0-.62-.54,13.65,13.65,0,0,0-1.43,0c-.55,0-.55,0-.55-.55V19.87a2.43,2.43,0,0,0,0-.47A.67.67,0,0,0,25,19a1.47,1.47,0,0,0-.32.38l-3.75,5.36-.09.11-.39.56-.27.42a.68.68,0,0,0,1.08.81,5.93,5.93,0,0,0,.57-.75l2.64-3.76c0-.08.08-.19.2-.22s0,.22,0,.33c0,3.06,0,6.11,0,9.17,0,.53,0,.54-.54.54H21.88l-.5,0a.67.67,0,0,0-.67.83.69.69,0,0,0,.63.54,8.34,8.34,0,0,0,1.12,0H28A.67.67,0,0,0,28.68,32.5Z"/><path class="cls-1" d="M15.31,17.18A1.68,1.68,0,0,1,13.68,15a.41.41,0,0,0-.14-.48L11.2,12.22,11,12a.6.6,0,0,1,0-.9c.25-.25.58-.22.9.07l.18.19c.78.78,1.56,1.55,2.33,2.34a.44.44,0,0,0,.49.14,1.3,1.3,0,0,1,.87,0,.43.43,0,0,0,.51-.14L21.8,8.16a2.45,2.45,0,0,1,.35-.29.52.52,0,0,1,.66.09.55.55,0,0,1,.13.66,1.26,1.26,0,0,1-.33.4q-2.73,2.75-5.48,5.48a.51.51,0,0,0-.17.59A1.68,1.68,0,0,1,15.31,17.18Zm.49-1.69a.51.51,0,0,0-.48-.52.56.56,0,0,0-.53.52.51.51,0,0,0,.52.48A.44.44,0,0,0,15.8,15.49Z"/></svg>