<svg id="Layer_1" data-name="Layer 1" xmlns="http://www.w3.org/2000/svg" viewBox="0 0 33.94 33.86"><defs><style>.cls-1{stroke:#000;stroke-miterlimit:10;stroke-width:0.25px;}</style></defs><path class="cls-1" d="M.52,14.2a16.92,16.92,0,0,1,.42-2.43A14.48,14.48,0,0,1,11.9,1,14.06,14.06,0,0,1,23.33,2.88,14.56,14.56,0,0,1,30,13.3c.05.3.06.6.09.9,0,.08,0,.19.08.23s.14-.07.2-.13l1.68-1.68a2,2,0,0,1,.32-.26.5.5,0,0,1,.7.08.54.54,0,0,1,.07.71,1.17,1.17,0,0,1-.21.24l-2.79,2.8c-.44.43-.71.43-1.15,0l-2.77-2.78a1.32,1.32,0,0,1-.24-.29.55.55,0,0,1,.11-.71.54.54,0,0,1,.73,0,4.27,4.27,0,0,1,.38.36L29,14.48a13.25,13.25,0,0,0-1.26-4.93A13.44,13.44,0,0,0,22.09,3.5a12.8,12.8,0,0,0-5.41-1.7c-.77-.06-.77-.06-.77.7,0,.25,0,.51,0,.77a.56.56,0,0,1-.54.6.55.55,0,0,1-.6-.53,7.43,7.43,0,0,1,0-1.25c0-.26-.08-.37-.35-.34A13.5,13.5,0,0,0,6.11,5.31,13.41,13.41,0,0,0,2,12.42a15.06,15.06,0,0,0-.29,2c0,.27.06.38.33.37.48,0,1,0,1.45,0h.16c.49,0,.76.26.75.62S4.1,16,3.6,16H2c-.25,0-.35.07-.33.33a13.41,13.41,0,0,0,.56,3,13.47,13.47,0,0,0,8.33,8.89,12.67,12.67,0,0,0,4,.84c.58,0,.89.39.7.83a.63.63,0,0,1-.69.36,14.3,14.3,0,0,1-4.51-.94A14.7,14.7,0,0,1,.65,17.57c-.06-.33-.09-.66-.13-1Z"/><path class="cls-1" d="M30.49,33.5a.75.75,0,0,1-.38-.73c0-.35,0-.71,0-1.06s-.09-.39-.39-.38c-2.14,0-4.28,0-6.42,0a2.17,2.17,0,0,1-.36,0,.57.57,0,0,1-.45-.77,1.77,1.77,0,0,1,.19-.33l7.39-10.56a1.63,1.63,0,0,1,.27-.31.56.56,0,0,1,.93.35,2.54,2.54,0,0,1,0,.39v9.6c0,.46,0,.46.47.46a11.62,11.62,0,0,1,1.18,0,.57.57,0,0,1,0,1.14c-.43,0-.87,0-1.31,0-.23,0-.31.08-.3.3,0,.38,0,.77,0,1.16a.75.75,0,0,1-.35.71Zm-.42-11.72c-.1,0-.13.11-.17.18l-5.54,7.89c-.05.08-.16.16-.09.25s.18,0,.28,0h5.11c.44,0,.45,0,.45-.45q0-3.82,0-7.65C30.1,22,30.14,21.86,30.07,21.78Z"/><path class="cls-1" d="M15.12,33.5c-.45-.34-.48-.64-.08-1.11l4.12-4.85c.77-.91,1.55-1.81,2.31-2.72a2.65,2.65,0,0,0-1.32-4.3,3.26,3.26,0,0,0-4.23,3,.63.63,0,0,1-.37.62.56.56,0,0,1-.77-.58,4.25,4.25,0,0,1,2-3.69,4.37,4.37,0,0,1,5.13.3,3.8,3.8,0,0,1,.52,5.26c-1.85,2.22-3.74,4.42-5.61,6.62-.07.08-.21.16-.17.26s.21.06.32.06h5.85c.27,0,.52,0,.66.3s0,.59-.23.82Z"/><path class="cls-1" d="M15.34,17.05a1.64,1.64,0,0,1-1.6-2.11.43.43,0,0,0-.14-.48c-.77-.76-1.54-1.52-2.3-2.29L11.12,12a.6.6,0,0,1,0-.89c.24-.24.57-.21.88.08l.18.18,2.3,2.3a.4.4,0,0,0,.47.13,1.33,1.33,0,0,1,.86,0,.41.41,0,0,0,.5-.15l5.46-5.45a1.34,1.34,0,0,1,.34-.29.51.51,0,0,1,.65.09.52.52,0,0,1,.13.64,1.38,1.38,0,0,1-.32.4c-1.8,1.8-3.59,3.6-5.39,5.39A.51.51,0,0,0,17,15,1.64,1.64,0,0,1,15.34,17.05Zm.48-1.66a.49.49,0,0,0-.47-.51.53.53,0,0,0-.52.51.5.5,0,0,0,.51.48A.45.45,0,0,0,15.82,15.39Z"/></svg>