<svg id="Layer_1" data-name="Layer 1" xmlns="http://www.w3.org/2000/svg" viewBox="0 0 52.22 32.59"><path d="M50.42,28.46h0a1.77,1.77,0,0,0,1.78-1.81c0-.28,0-.55,0-.83s0-.75,0-1.13a1.83,1.83,0,0,0-.76-1.62.87.87,0,0,1-.38-.76,6.52,6.52,0,0,0-1.25-3.8,1.6,1.6,0,0,1-.29-1c0-1.36,0-2.73,0-4.09V2.19A1.84,1.84,0,0,0,47.45.09H4.76A1.85,1.85,0,0,0,2.64,2.21V17.49a1.69,1.69,0,0,1-.31,1.05A6.57,6.57,0,0,0,1.1,22.3.81.81,0,0,1,.76,23,2.32,2.32,0,0,0,0,24v3.18a1.9,1.9,0,0,0,2,1.28.62.62,0,0,1,.49.15.69.69,0,0,1,.18.54c0,.83,0,1.65,0,2.47,0,.67.28.95.95.95,1.28,0,2.57,0,3.85,0,.67,0,.94-.27.94-1,0-.48,0-.95,0-1.43v-.68c0-.92.11-1,1-1H42.9a.54.54,0,0,0,.18,0h.1a.65.65,0,0,1,.43.14.73.73,0,0,1,.19.56q0,1.26,0,2.52a.79.79,0,0,0,.9.89c1.3,0,2.61,0,3.91,0,.64,0,.92-.27.93-.92v-.41c0-.62,0-1.26,0-1.89a.75.75,0,0,1,.89-.9ZM4.27,2.76c0-.92.11-1,1-1H47a1.62,1.62,0,0,0,.22,0,.6.6,0,0,1,.49.15.61.61,0,0,1,.17.5V13.21h0v.25c0,.75,0,1.5,0,2.25a.62.62,0,0,1-.2.57.6.6,0,0,1-.59-.07,6.14,6.14,0,0,0-2.61-.68.62.62,0,0,1-.48-.18.73.73,0,0,1-.16-.52c0-.32,0-.63,0-.95v-.23A3.83,3.83,0,0,0,40,9.76H31.75a3.83,3.83,0,0,0-3.9,3.89v.24c0,.33,0,.66,0,1a.66.66,0,0,1-.16.49.7.7,0,0,1-.49.17c-.74,0-1.47,0-2.21,0a.68.68,0,0,1-.5-.17.75.75,0,0,1-.16-.53c0-.39,0-.79,0-1.18v-.09a3.83,3.83,0,0,0-3.79-3.79c-2.81,0-5.62,0-8.43,0a3.82,3.82,0,0,0-3.7,2.91,5.82,5.82,0,0,0-.11,1.57c0,.19,0,.38,0,.58a.61.61,0,0,1-.68.7,6.27,6.27,0,0,0-2.48.63,1.3,1.3,0,0,1-.51.18.41.41,0,0,1-.18-.05c-.18-.12-.18-.31-.18-.67Zm38,11.7v.47h0a.63.63,0,0,1-.15.44.68.68,0,0,1-.55.15H30.27a.86.86,0,0,1-.64-.21.84.84,0,0,1-.16-.65,4.43,4.43,0,0,0,0-.52,3.5,3.5,0,0,1,0-.72,2.21,2.21,0,0,1,2.27-2c2.6,0,5.33,0,8.13,0a2.25,2.25,0,0,1,2.31,2.12A7.38,7.38,0,0,1,42.25,14.46Zm-19.55,0v.43a.58.58,0,0,1-.15.43.67.67,0,0,1-.54.15H10.71a.84.84,0,0,1-.63-.21.77.77,0,0,1-.16-.61,3.11,3.11,0,0,0,0-.53c0-.16,0-.33,0-.49a2.28,2.28,0,0,1,2.31-2.29c2.63,0,5.36,0,8.13,0a2.24,2.24,0,0,1,2.29,2.07A7.27,7.27,0,0,1,22.7,14.51ZM2.81,21.8a5.35,5.35,0,0,1,4.38-4.54,12.45,12.45,0,0,1,1.57-.11q17.46,0,34.92,0h0a5.49,5.49,0,0,1,4.61,2.09,5.14,5.14,0,0,1,1.1,2.83.65.65,0,0,1-.14.52.56.56,0,0,1-.4.14H3.64c-.38,0-.59,0-.74-.17S2.78,22.19,2.81,21.8Zm3.79,9c-.16.16-.37.15-.76.15H5a.71.71,0,0,1-.56-.15c-.16-.16-.16-.38-.15-.77v-.66c0-.38,0-.6.14-.75s.37-.16.75-.16h.7c.38,0,.59,0,.74.15s.16.37.15.75v.69C6.76,30.45,6.76,30.66,6.6,30.81ZM47.91,30c0,.4,0,.61-.15.77s-.29.15-.57.15h-.85c-.39,0-.61,0-.77-.15s-.15-.37-.14-.77v-.66c0-.38,0-.6.14-.76s.37-.15.76-.15c.11,0,.23,0,.38,0H47c.38,0,.59,0,.75.15s.15.38.14.77V30Zm1.18-3.2H2.58c-.87,0-1-.11-1-1,0-.7,0-1.05.23-1.28s.59-.23,1.3-.23H49.58c.89,0,1,.11,1,1,0,.69,0,1-.23,1.26S49.78,26.84,49.09,26.84Z"/></svg>