<svg id="Layer_1" data-name="Layer 1" xmlns="http://www.w3.org/2000/svg" viewBox="0 0 36.58 33"><path d="M0,7.5A9.94,9.94,0,0,1,.8,4.88a8.39,8.39,0,0,1,7-4.83,8.49,8.49,0,0,1,8.52,5c0,.07.07.14.13.25a8.6,8.6,0,0,1,1.76-2.68,8.59,8.59,0,0,1,12.1-.22,8,8,0,0,1,2.54,5,8.42,8.42,0,0,1-4.08,8.57c-.11.07-.35.12-.07.3a2.55,2.55,0,0,1,1.21,2.26c0,.09,0,.21,0,.26s.19-.06.27-.11l3.27-2.37a1.89,1.89,0,0,1,3.07,1.44q0,6.72,0,13.43a1.74,1.74,0,0,1-1,1.61,1.8,1.8,0,0,1-2-.12c-1-.69-1.93-1.4-2.89-2.09-.22-.16-.47-.49-.67-.42s-.11.49-.14.75A2.51,2.51,0,0,1,27.42,33H5.65a2.49,2.49,0,0,1-2.3-1.25A2.72,2.72,0,0,1,3,30.38c0-.61,0-1.23,0-1.85,0-.29-.09-.43-.39-.4s-.31,0-.47,0A2,2,0,0,1,0,26.71V22.14A2,2,0,0,1,2.17,20.7h.32c.5,0,.5,0,.5-.48S3,19,3,18.43a2.46,2.46,0,0,1,1.18-2.19c.26-.17.13-.22,0-.32A8.61,8.61,0,0,1,.75,12.16,10.59,10.59,0,0,1,0,9.64Zm16.45,9.65H5.74c-1,0-1.43.42-1.43,1.43,0,3.88,0,7.75,0,11.63,0,1.06.41,1.48,1.46,1.48H27.15c1,0,1.46-.44,1.46-1.45V18.57c0-1-.44-1.42-1.42-1.42ZM1.26,8.54A7.27,7.27,0,1,0,8.85,1.32,7.27,7.27,0,0,0,1.26,8.54Zm30.37.09a7.27,7.27,0,1,0-7.38,7.2A7.26,7.26,0,0,0,31.63,8.63Zm3.69,15.8V18a.72.72,0,0,0-.37-.75.65.65,0,0,0-.73.12l-4.07,2.95a.51.51,0,0,0-.23.45v7.35a.46.46,0,0,0,.17.41c1.41,1,2.81,2,4.23,3.05a.58.58,0,0,0,1-.41,2.07,2.07,0,0,0,0-.5ZM16.45,11.83a8.57,8.57,0,0,1-1.37,2.25,9.23,9.23,0,0,1-2,1.73H19.8A8.9,8.9,0,0,1,16.45,11.83ZM3,24.43V23C3,22,3,22,1.92,22c-.42,0-.66.2-.66.62,0,1.18,0,2.36,0,3.53,0,.44.25.64.7.65.22,0,.45,0,.67,0s.38-.09.38-.37C3,25.78,3,25.1,3,24.43Z"/><path d="M13.41,20.11h4.14a1.84,1.84,0,0,1,2,2c0,1.55,0,3.09,0,4.64a1.84,1.84,0,0,1-2,2q-4.14,0-8.27,0a1.88,1.88,0,0,1-2-2c0-1.54,0-3.09,0-4.63a1.87,1.87,0,0,1,2-2Zm0,1.32H9.33c-.59,0-.75.16-.75.74v4.49c0,.58.17.75.74.75h8.17c.55,0,.76-.21.76-.75,0-1.49,0-3,0-4.49,0-.56-.19-.74-.76-.74Z"/><path d="M25,21.68a2.17,2.17,0,1,1-2.17-2.19A2.19,2.19,0,0,1,25,21.68Zm-2.22.86a.84.84,0,0,0,.9-.81.86.86,0,0,0-.82-.93.87.87,0,0,0-.88.8A.85.85,0,0,0,22.8,22.54Z"/><path d="M25,27.17A2.17,2.17,0,1,1,22.85,25,2.18,2.18,0,0,1,25,27.17Zm-2.15-.87a.83.83,0,0,0-.87.83.85.85,0,1,0,1.7,0A.81.81,0,0,0,22.87,26.3Z"/><path d="M14.45,7.24a1.88,1.88,0,0,1-1.84,1.89,1.91,1.91,0,0,1-1.9-1.88A1.88,1.88,0,0,1,12.59,5.4,1.84,1.84,0,0,1,14.45,7.24Zm-1.33,0a.53.53,0,0,0-.51-.57.48.48,0,0,0-.54.49.56.56,0,0,0,.52.6A.54.54,0,0,0,13.12,7.29Z"/><path d="M4.48,5.4A1.86,1.86,0,0,1,6.35,7.26,1.9,1.9,0,0,1,4.47,9.12,1.86,1.86,0,0,1,2.62,7.25,1.84,1.84,0,0,1,4.48,5.4Zm0,1.3a.51.51,0,0,0-.54.53.54.54,0,0,0,.53.59A.58.58,0,0,0,5,7.26.56.56,0,0,0,4.48,6.7Z"/><path d="M7.88,12A1.84,1.84,0,0,1,6,13.88a1.86,1.86,0,0,1,0-3.72A1.86,1.86,0,0,1,7.88,12ZM6.59,12A.58.58,0,0,0,6,11.45a.6.6,0,0,0-.56.58.53.53,0,0,0,.56.53A.53.53,0,0,0,6.59,12Z"/><path d="M12.89,12.05a1.85,1.85,0,1,1-1.82-1.89A1.85,1.85,0,0,1,12.89,12.05Zm-1.28,0a.61.61,0,0,0-.57-.57.58.58,0,0,0-.56.58.52.52,0,0,0,.55.53A.55.55,0,0,0,11.61,12Z"/><path d="M6.68,4.27a1.85,1.85,0,1,1,3.7.11,1.85,1.85,0,0,1-3.7-.11Zm1.84.58a.55.55,0,0,0,.58-.54A.57.57,0,1,0,8,4.32.55.55,0,0,0,8.52,4.85Z"/><path d="M9.16,8.58a.63.63,0,0,1-.62.64.65.65,0,0,1,0-1.3A.66.66,0,0,1,9.16,8.58Z"/><path d="M30.3,7.26A1.87,1.87,0,1,1,28.45,5.4,1.85,1.85,0,0,1,30.3,7.26ZM29,7.24a.53.53,0,0,0-.59-.52.52.52,0,0,0-.52.55.55.55,0,0,0,.56.56A.6.6,0,0,0,29,7.24Z"/><path d="M24.37,6.16A1.88,1.88,0,0,1,22.5,4.3a1.91,1.91,0,0,1,1.88-1.86,1.86,1.86,0,0,1,1.85,1.87A1.83,1.83,0,0,1,24.37,6.16Zm0-1.31a.5.5,0,0,0,.53-.54.55.55,0,0,0-.55-.57.59.59,0,0,0-.56.57A.55.55,0,0,0,24.39,4.85Z"/><path d="M21.85,13.88a1.86,1.86,0,1,1,0-3.72A1.86,1.86,0,0,1,23.73,12,1.84,1.84,0,0,1,21.85,13.88ZM22.42,12a.56.56,0,0,0-.55-.58.59.59,0,0,0-.56.58.52.52,0,0,0,.54.53A.51.51,0,0,0,22.42,12Z"/><path d="M28.73,12a1.82,1.82,0,0,1-1.86,1.84A1.86,1.86,0,0,1,25,12a1.89,1.89,0,0,1,1.87-1.86A1.87,1.87,0,0,1,28.73,12Zm-1.83.52a.52.52,0,0,0,.54-.53.58.58,0,0,0-.56-.58.61.61,0,0,0-.57.58A.55.55,0,0,0,26.9,12.56Z"/><path d="M18.47,7.24A1.82,1.82,0,0,1,20.34,5.4a1.84,1.84,0,0,1,1.84,1.87,1.86,1.86,0,1,1-3.71,0Zm2.42,0a.58.58,0,0,0-.57-.57.57.57,0,1,0,.57.57Z"/><path d="M25,8.58a.66.66,0,0,1-.63.64.64.64,0,0,1-.64-.63.65.65,0,0,1,.65-.67A.67.67,0,0,1,25,8.58Z"/><path d="M12.82,26.28a.65.65,0,0,1-.59-.94,1.93,1.93,0,0,1,.22-.28l2.22-2.21a.69.69,0,0,1,.62-.28.61.61,0,0,1,.52.38.56.56,0,0,1-.1.66q-1.25,1.28-2.52,2.52A.58.58,0,0,1,12.82,26.28Z"/><path d="M12.22,23.18a.76.76,0,0,1-.23.52c-.38.38-.75.76-1.13,1.13a.65.65,0,1,1-.92-.91c.39-.4.78-.79,1.19-1.17a.58.58,0,0,1,.68-.14A.68.68,0,0,1,12.22,23.18Z"/></svg>