<svg id="Layer_1" data-name="Layer 1" xmlns="http://www.w3.org/2000/svg" viewBox="0 0 28.74 33"><path d="M14.18,33a.83.83,0,0,1-.48-.86c0-1.24,0-2.47,0-3.71V28l-1.16,1.09L11,30.54a.65.65,0,0,1-1-.07.66.66,0,0,1,.12-.93l2.12-2,1.3-1.25a.52.52,0,0,0,.18-.4q0-3.95,0-7.89c0-.27-.08-.26-.27-.14q-3.37,2-6.76,3.95a.69.69,0,0,0-.35.5l-1,4.32a.93.93,0,0,1-.27.54.65.65,0,0,1-.78.06A.66.66,0,0,1,4,26.46c.24-1,.49-2.06.73-3.1,0-.11.13-.25,0-.33s-.21,0-.31.11L1.14,25a.75.75,0,0,1-.6.15A.67.67,0,0,1,0,24.59a.66.66,0,0,1,.38-.68l2.28-1.34,1.14-.67c.07,0,.19-.06.17-.16s-.14-.09-.22-.12L1,20.83.54,20.7A.68.68,0,0,1,1,19.42c1.13.31,2.28.57,3.37,1A2.7,2.7,0,0,0,7,20.09c1.88-1.2,3.84-2.28,5.76-3.41.3-.18.3-.18,0-.35L6.06,12.42a.79.79,0,0,0-.67-.1c-1.39.41-2.78.8-4.18,1.19a3.39,3.39,0,0,1-.43.11.67.67,0,0,1-.33-1.28,5.24,5.24,0,0,1,.64-.2l2.64-.75c.08,0,.22,0,.24-.12s-.13-.14-.22-.19l-3.33-2A.68.68,0,1,1,1.11,8L4.4,9.87l.11.07c.06,0,.13.1.2,0s0-.14,0-.21c-.14-.62-.29-1.25-.44-1.88C4.16,7.44,4.05,7,4,6.55a.68.68,0,0,1,.46-.89.67.67,0,0,1,.85.57c.37,1.5.72,3,1.07,4.51a.66.66,0,0,0,.34.47q3.39,2,6.76,4c.23.13.28.1.28-.16q0-3.91,0-7.83a.64.64,0,0,0-.24-.5l-3.3-3.16a.73.73,0,0,1-.3-.68A.67.67,0,0,1,11,2.49L13.4,4.73l.25.23a.55.55,0,0,0,0-.35c0-1.3,0-2.6,0-3.9A.66.66,0,0,1,14.15,0a.65.65,0,0,1,.73.2A.78.78,0,0,1,15,.79v3.8a.63.63,0,0,0,.05.37l1-1,1.49-1.42a.68.68,0,1,1,.94,1c-1.07,1-2.15,2.07-3.24,3.09a.81.81,0,0,0-.28.64q0,3.84,0,7.67c0,.38,0,.38.33.19L22,11.23a.69.69,0,0,0,.37-.52c.33-1.43.68-2.86,1-4.29a1.74,1.74,0,0,1,.05-.22.7.7,0,0,1,.83-.53.68.68,0,0,1,.48.86c-.12.54-.25,1.09-.38,1.63s-.25,1-.37,1.56c0,.09-.1.21,0,.27s.18,0,.26-.09l3.06-1.79.34-.19a.66.66,0,0,1,.94.24.64.64,0,0,1-.28.93c-.5.31-1,.61-1.53.9l-1.91,1.13a.26.26,0,0,0-.18.16,3,3,0,0,0,.72.23l2.66.77a.66.66,0,0,1,.5.7.72.72,0,0,1-.54.62,1,1,0,0,1-.5-.07c-1.38-.39-2.77-.78-4.15-1.19a.92.92,0,0,0-.79.1c-2.2,1.3-4.42,2.6-6.64,3.89-.22.13-.26.19,0,.34,2.23,1.3,4.47,2.61,6.69,3.93a.76.76,0,0,0,.67.08l4.18-1.19a1.13,1.13,0,0,1,.51-.09.72.72,0,0,1,.57.62.66.66,0,0,1-.49.7l-2.2.64-1.19.35c.06.15.17.18.26.23l3.33,2a.68.68,0,0,1-.13,1.28.74.74,0,0,1-.61-.15l-3.17-1.86-.19-.11c-.07,0-.13-.11-.2,0s0,.12,0,.18c.13.54.25,1.09.38,1.63s.25,1,.36,1.54a.68.68,0,0,1-.47.91c-.41.1-.74-.14-.85-.62-.35-1.46-.7-2.92-1-4.39a.71.71,0,0,0-.38-.51l-6.7-3.92c-.22-.13-.3-.14-.3.16q0,3.9,0,7.8a.65.65,0,0,0,.25.52l3.23,3.1a.72.72,0,0,1,.29.77.66.66,0,0,1-1.1.31c-.4-.35-.77-.72-1.15-1.08L15.1,28.05c-.11.12-.06.24-.06.35,0,1.24,0,2.49,0,3.74a.83.83,0,0,1-.48.86Z"/></svg>