<svg id="Layer_1" data-name="Layer 1" xmlns="http://www.w3.org/2000/svg" viewBox="0 0 48.21 33.04"><path d="M48.2,21.63h0V16.76h0V1.56C48.21.42,47.79,0,46.65,0H1.54A1.6,1.6,0,0,0,0,.79V7.28a.79.79,0,0,0,1,.38c.4-.15.48-.49.48-.88,0-1.57,0-3.14,0-4.7,0-.42.13-.54.54-.54q16,0,32,0c.44,0,.55.15.55.57q0,12.75,0,25.49c0,.43-.11.58-.55.58H2c-.46,0-.53-.19-.53-.59,0-5.54,0-11.07,0-16.6,0-.16,0-.32,0-.47A.85.85,0,0,0,1,9.58c-.43-.19-.72.05-1,.33v19a1.47,1.47,0,0,0,1.48.79c.67,0,1.35,0,2,0,.38,0,.54.09.52.5s0,1,0,1.5A1.21,1.21,0,0,0,5.27,33c1,0,2.07,0,3.11,0a1.21,1.21,0,0,0,1.24-1.26c0-.44,0-.88,0-1.32,0-.7,0-.7.68-.7H37.87a1.92,1.92,0,0,0,.24,0c.32,0,.45.1.44.43,0,.53,0,1.07,0,1.6A1.2,1.2,0,0,0,39.76,33c1.06,0,2.13,0,3.2,0a1.19,1.19,0,0,0,1.2-1.24c0-.53,0-1.07,0-1.6,0-.32.1-.45.43-.44q1.2,0,2.4,0a1.18,1.18,0,0,0,1.21-1.23c0-.56,0-1.12,0-1.69C48.21,25.06,48.21,23.34,48.2,21.63ZM7.05,31.45c-.4,0-.81,0-1.22,0-.23,0-.35-.1-.34-.34v0c-.08-1.37-.08-1.37,1.28-1.37h.61c.71,0,.71,0,.71.73C8.08,31.58,8.2,31.45,7.05,31.45Zm35.63-.35c0,.23-.09.35-.33.35H40.43c-.24,0-.34-.12-.34-.35v-.05C40,29.7,40,29.7,41.39,29.7h0C42.81,29.7,42.8,29.7,42.68,31.1Zm4-3.55c0,.62,0,.62-.63.62H36.69c-.64,0-.65,0-.65-.66V2.2c0-.65,0-.65.65-.65h9.36c.68,0,.68,0,.68.66V16.14h0v5.11h0Z"/><path d="M44.24,22.17a2.89,2.89,0,1,1-2.9-2.86A2.94,2.94,0,0,1,44.24,22.17Zm-1.54,0a1.35,1.35,0,1,0-1.34,1.33A1.33,1.33,0,0,0,42.7,22.2Z"/><path d="M41.32,9.85H40a1.38,1.38,0,0,1-1.48-1.37,13.36,13.36,0,0,1,0-1.55A1.38,1.38,0,0,1,39.8,5.52a18.29,18.29,0,0,1,3.14,0A1.37,1.37,0,0,1,44.24,7c0,.49,0,1,0,1.46a1.39,1.39,0,0,1-1.46,1.4Zm0-1.47h.47c1,0,1,0,.89-1,0-.25-.1-.38-.37-.38-.65,0-1.31,0-2,0-.26,0-.35.12-.36.37-.07,1-.07,1,.92,1Z"/><path d="M41.37,15.31H39.91A1.35,1.35,0,0,1,38.49,14a13,13,0,0,1,0-1.65A1.35,1.35,0,0,1,39.75,11a17,17,0,0,1,3.19,0,1.38,1.38,0,0,1,1.3,1.46c0,.46,0,.91,0,1.37a1.39,1.39,0,0,1-1.5,1.49Zm-.06-1.48h.51c1,0,1,0,.89-1,0-.25-.1-.38-.37-.38h-2c-.27,0-.35.12-.36.37-.07,1-.07,1,.92,1Z"/><path d="M18,26.79H4.42c-1.13,0-1.54-.41-1.54-1.52V4.43c0-1.07.44-1.5,1.52-1.5q13.58,0,27.14,0c1.09,0,1.56.43,1.57,1.52,0,1.4,0,2.8,0,4.19A1.83,1.83,0,0,1,32.57,10a5.23,5.23,0,0,0-1.25,2.94,10.66,10.66,0,0,0,.33,5.2,4.07,4.07,0,0,0,1,1.72,1.63,1.63,0,0,1,.44,1.25c0,1.38,0,2.76,0,4.14,0,1.12-.46,1.55-1.59,1.55ZM18,4.46H5c-.65,0-.65,0-.65.66V24.59c0,.66,0,.67.69.67H24.57c2.16,0,4.33,0,6.49,0,.37,0,.54-.09.53-.5,0-1.16,0-2.32,0-3.48a.82.82,0,0,0-.21-.6,5.43,5.43,0,0,1-1.12-1.95,11.47,11.47,0,0,1-.53-5.6A7.51,7.51,0,0,1,31.44,9a.78.78,0,0,0,.14-.57c0-1.1,0-2.2,0-3.3,0-.64,0-.64-.65-.64Z"/><path d="M23.41,10.16a.73.73,0,0,1,.67,1.06,2.06,2.06,0,0,1-.32.41,1.72,1.72,0,0,0,0,2.52,7.07,7.07,0,0,1,.89,1.09,3.26,3.26,0,0,1-.8,4.16.7.7,0,0,1-1,0,.69.69,0,0,1-.08-1c.12-.17.27-.31.39-.47a1.64,1.64,0,0,0,0-2.16c-.28-.35-.61-.67-.88-1a3.23,3.23,0,0,1,.64-4.39A.74.74,0,0,1,23.41,10.16Z"/><path d="M13.67,16.89a3.21,3.21,0,0,1-1.11,2.42.75.75,0,0,1-1.09.06.77.77,0,0,1,0-1.1,2,2,0,0,0,.67-1.4,1.75,1.75,0,0,0-.44-1.2c-.26-.29-.54-.57-.77-.88a3.25,3.25,0,0,1,.51-4.41.8.8,0,0,1,1.07,0,.75.75,0,0,1,0,1c-.08.12-.18.22-.27.33a1.66,1.66,0,0,0,0,2.37l.56.63A3.11,3.11,0,0,1,13.67,16.89Z"/><path d="M17.7,19.57a.74.74,0,0,1-.65-1.1,2.45,2.45,0,0,1,.38-.47,1.68,1.68,0,0,0,.05-2.24c-.25-.32-.55-.61-.8-.93a3.23,3.23,0,0,1,.5-4.47.74.74,0,0,1,1,0,.72.72,0,0,1,0,1.05,2.38,2.38,0,0,0-.7,1.19,1.93,1.93,0,0,0,.68,1.72,3.61,3.61,0,0,1,1.14,2,3.28,3.28,0,0,1-1.18,3.06A.74.74,0,0,1,17.7,19.57Z"/><rect y="1.48" width="1.46" height="26.8"/></svg>