<svg id="Layer_1" data-name="Layer 1" xmlns="http://www.w3.org/2000/svg" viewBox="0 0 58.21 33.08"><path d="M54.5,29h0a1.25,1.25,0,0,0,.83-.48c.26-.28.51-.58.73-.87a11.34,11.34,0,0,0,2.13-5.09v-3a11.4,11.4,0,0,0-2.29-5.26,7.73,7.73,0,0,0-.82-.92.78.78,0,0,0-.56-.25.8.8,0,0,0-.55.24.78.78,0,0,0,0,1.08,2.52,2.52,0,0,0,.21.25l.16.17a9.16,9.16,0,0,1,2.19,7.85,9,9,0,0,1-2.35,4.69c-.49.52-.54,1-.17,1.33A.73.73,0,0,0,54.5,29Z"/><path d="M15.65,9.33A4.42,4.42,0,0,0,11,14.07q0,7.08,0,14.17a4.43,4.43,0,0,0,4.68,4.67H33.13c3.24,0,6.48,0,9.72,0a4.41,4.41,0,0,0,4.44-4.45c0-3.63,0-7.25,0-10.88v-3.8a4.5,4.5,0,0,0-4.74-4.45A.75.75,0,0,1,42,9.16a.75.75,0,0,1-.16-.58c0-.6,0-1.21,0-1.8V6.41A6.26,6.26,0,0,0,35.57.17c-4.13,0-8.35,0-12.88,0a6.27,6.27,0,0,0-6.15,5.25,12.86,12.86,0,0,0-.09,2.4c0,.24,0,.47,0,.71a.82.82,0,0,1-.18.62A.86.86,0,0,1,15.65,9.33ZM41,13.67h0a.82.82,0,0,0,.77-.82c0-.48,0-.95,0-1.31s.31-.58.59-.6a3.15,3.15,0,0,1,2.4.75A3,3,0,0,1,45.68,14c0,4.41,0,9.08,0,14.29a2.79,2.79,0,0,1-3,3c-.38,0-.61,0-.75-.14s-.14-.36-.14-.74V17c0-.14,0-.28,0-.41a.82.82,0,0,0-.74-.8.83.83,0,0,0-.83.71,3.6,3.6,0,0,0,0,.66V30.37c0,.87-.06.93-.92.93H19c-.86,0-.92-.06-.92-.93V11.86c0-.86.06-.91.92-.92H39.29c.84,0,.9.05.91.91v.25a5.63,5.63,0,0,0,0,.82A.82.82,0,0,0,41,13.67ZM21.72,6.58c0-.77.36-1.12,1.09-1.12H35.46a1,1,0,0,1,1.08,1.07v.9c0,.38,0,.77,0,1.15a.72.72,0,0,1-.15.57.88.88,0,0,1-.61.18c-1.64,0-3.31,0-4.93,0H27.3c-1.57,0-3.19,0-4.78,0h0a.82.82,0,0,1-.62-.19.81.81,0,0,1-.16-.63c0-.38,0-.77,0-1.15ZM18.21,5.24A4.58,4.58,0,0,1,22.52,1.8c1.53,0,3.1,0,4.61,0h4c1.48,0,3,0,4.52,0a4.5,4.5,0,0,1,4.46,3.62,9.67,9.67,0,0,1,.12,2.4c0,.34,0,.69,0,1s-.13.42-.33.42a10.59,10.59,0,0,1-1.38,0c-.32,0-.32-.35-.31-.52v-1c0-.4,0-.79,0-1.19A2.63,2.63,0,0,0,35.4,3.83H22.86A2.63,2.63,0,0,0,20.1,6.57c0,.64,0,1.38,0,2.11a.64.64,0,0,1-.14.49.57.57,0,0,1-.45.15h0c-.83,0-1.14,0-1.31-.14s-.13-.35-.12-.75c0-.14,0-.3,0-.48s0-.42,0-.62A7,7,0,0,1,18.21,5.24Zm-1.76,6.45c0,1.89,0,3.82,0,5.68V23.5c0,2.28,0,4.65,0,7a.87.87,0,0,1-.19.65.8.8,0,0,1-.61.19h-.05a2.8,2.8,0,0,1-3-3c0-4.63,0-9.44,0-14.28a3,3,0,0,1,.81-2.24,3.16,3.16,0,0,1,2.29-.81.86.86,0,0,1,.61.17A.78.78,0,0,1,16.45,11.69Z"/><path d="M0,20.27a11.56,11.56,0,0,0,2.79,8.16,2.6,2.6,0,0,0,.52.47.71.71,0,0,0,.94-.09.7.7,0,0,0,.12-1A2.48,2.48,0,0,0,4,27.39l-.14-.16a9.3,9.3,0,0,1,.29-12.54,1.06,1.06,0,0,0,.35-.76.7.7,0,0,0-.27-.51c-.38-.34-.83-.27-1.27.21A10.46,10.46,0,0,0,0,20.27Z"/><path d="M7.74,25a.85.85,0,0,0-.27-.6,4.84,4.84,0,0,1,0-6.55,1,1,0,0,0,.3-.69.76.76,0,0,0-.28-.54c-.39-.33-.79-.27-1.22.21a6.13,6.13,0,0,0-1.67,4.27,6.25,6.25,0,0,0,1.74,4.35A.79.79,0,0,0,7.74,25Z"/><path d="M52.07,25.35a6.09,6.09,0,0,0,1.63-4.09A6.22,6.22,0,0,0,52,16.76a1,1,0,0,0-.68-.31l-.16,0a.71.71,0,0,0-.53.48,1,1,0,0,0,.28,1,4.68,4.68,0,0,1,0,6.39c-.41.5-.43,1,0,1.28S51.62,25.86,52.07,25.35Z"/><path d="M34.15,21.4a2.3,2.3,0,0,0-1.26-1.94L28,16.64a2.55,2.55,0,0,0-1.26-.36,2,2,0,0,0-1,.26,2.25,2.25,0,0,0-1.07,2c0,.65,0,1.31,0,2V22.3c0,.65,0,1.31,0,2a2.27,2.27,0,0,0,1.06,2,2.24,2.24,0,0,0,2.26-.1c1.57-.89,3.23-1.85,4.93-2.86A2.24,2.24,0,0,0,34.15,21.4ZM32.09,22c-1.64,1-3.28,1.9-4.89,2.81a1,1,0,0,1-.46.15.45.45,0,0,1-.2,0c-.16-.1-.24-.3-.24-.64,0-.67,0-1.35,0-2V20.61c0-.67,0-1.34,0-2,0-.35.09-.57.26-.66s.38-.06.67.1c1.73,1,3.33,1.9,4.89,2.82q.42.24.42.54C32.53,21.6,32.38,21.79,32.09,22Z"/></svg>