<svg id="Layer_1" data-name="Layer 1" xmlns="http://www.w3.org/2000/svg" viewBox="0 0 51.81 33.08"><path d="M51.81,25.12l-3.89,0c-2.72,0-5.43,0-8.14,0-.41,0-.54.07-.52.53a11.48,11.48,0,0,1,0,2.87A5.44,5.44,0,0,1,34,33q-8.12.06-16.23,0a5.48,5.48,0,0,1-5.32-5.42,11,11,0,0,1,.06-2.07c.05-.26,0-.38-.31-.38H.67c-.67,0-.67,0-.67-.68a10.35,10.35,0,0,1,6.42-9.72c.39-.16.43-.23.09-.53A5.7,5.7,0,0,1,4.71,8,5.62,5.62,0,0,1,9.45,3.86a5.87,5.87,0,0,1,6.84,4.93,5.73,5.73,0,0,1-2,5.44c-.28.25-.35.34.06.5a8.79,8.79,0,0,1,2.56,1.5c.2.16.37.27.61.07a13.25,13.25,0,0,1,4.1-2.25c.05,0,.08-.06.16-.12a7.51,7.51,0,0,1-3.44-6.71,7.11,7.11,0,0,1,2.34-5.11A7.56,7.56,0,1,1,30,13.92c0,.16.16.16.26.19a13,13,0,0,1,4,2.18.38.38,0,0,0,.57,0,10,10,0,0,1,2.87-1.68,1.08,1.08,0,0,0,.18-.13A6,6,0,0,1,36,12.09,5.72,5.72,0,0,1,37,5.7,5.6,5.6,0,0,1,43.12,4,5.67,5.67,0,0,1,47.29,8.8a5.74,5.74,0,0,1-1.93,5.37c-.4.37-.39.36.1.58a10.33,10.33,0,0,1,6.28,8.1,1.09,1.09,0,0,0,.07.24Zm-26,6.14c2.63,0,5.25,0,7.88,0a3.72,3.72,0,0,0,3.83-3.79,14.9,14.9,0,0,0-.11-2.31,11.68,11.68,0,0,0-23-.88,12,12,0,0,0-.21,3.87A3.7,3.7,0,0,0,18,31.25C20.59,31.27,23.21,31.26,25.82,31.26ZM20.08,7.58a5.76,5.76,0,0,0,5.78,5.78,5.85,5.85,0,0,0,5.79-5.8,5.81,5.81,0,0,0-5.81-5.77A5.75,5.75,0,0,0,20.08,7.58Zm24.4,15.79h4.9c.68,0,.7,0,.56-.67a8.69,8.69,0,0,0-13.72-5.3c-.38.28-.35.47-.07.79a12.72,12.72,0,0,1,2.56,4.67.62.62,0,0,0,.71.52C41.11,23.36,42.79,23.37,44.48,23.37Zm-37.16,0c1.68,0,3.36,0,5,0a.54.54,0,0,0,.61-.44,12.9,12.9,0,0,1,2.55-4.72c.44-.54.43-.55-.15-.95a8.55,8.55,0,0,0-5.63-1.55,8.66,8.66,0,0,0-7.91,7.11c-.08.46.06.55.48.55C4,23.36,5.65,23.37,7.32,23.37Zm34.07-9.48a4.19,4.19,0,1,0-4.17-4.22A4.18,4.18,0,0,0,41.39,13.89Zm-31,0A4.19,4.19,0,1,0,6.18,9.7,4.16,4.16,0,0,0,10.38,13.89Z"/></svg>