<svg id="Layer_1" data-name="Layer 1" xmlns="http://www.w3.org/2000/svg" viewBox="0 0 52.82 33.78"><defs><style>.cls-1{stroke:#000;stroke-miterlimit:10;stroke-width:0.5px;}</style></defs><path class="cls-1" d="M52.29,26.26a3,3,0,0,1-2.9.32,1.3,1.3,0,0,1-.67-1.07c0-.21,0-.39-.27-.49a4.85,4.85,0,0,1-1.88-1.8,1.83,1.83,0,0,0-.45-.47,9,9,0,0,0-5.34-1.27,6.72,6.72,0,0,0,.71,1.26,24.18,24.18,0,0,0,3.22,5L48,31.15a2.76,2.76,0,0,1,.55.72.86.86,0,0,1-.61,1.29,6.14,6.14,0,0,1-2.56,0,1.08,1.08,0,0,1-.85-1.07.56.56,0,0,0-.42-.54,2.15,2.15,0,0,1-1.2-1.43,2.09,2.09,0,0,0-.4-.75c-2.09-2.41-3.95-5-5.89-7.53-.5-.64-.6-.67-1.36-.37a16.12,16.12,0,0,1-12.83-.15.75.75,0,0,0-.71,0,2.92,2.92,0,0,0-1.45,1.37,3.06,3.06,0,0,1-2.66,1.58,11.16,11.16,0,0,1-1.41.11,2.12,2.12,0,0,0-2.05,1.38,4.67,4.67,0,0,0-.33,2.53c0,.05,0,.1,0,.15a1.3,1.3,0,0,0,.84,1.4,5.05,5.05,0,0,1,1.77,2.34c.25.45,0,.9-.54,1.13a2.28,2.28,0,0,1-2.89-1,.68.68,0,0,0-.37-.32c-1.37-.58-1.51-.82-1.46-2.32,0-1.3,0-2.6.1-3.9a20.39,20.39,0,0,1,.4-2.11,8.57,8.57,0,0,0-1.55.92A34.64,34.64,0,0,0,7,27.06a2.76,2.76,0,0,0-.58.69,2,2,0,0,1-1.83,1.07,2.35,2.35,0,0,0-1.16.29,3.65,3.65,0,0,1-2,.42c-.58-.05-1-.43-.88-1,.21-1,.87-2.29,2.13-2.41a1,1,0,0,1,.69.11c.3.22.5.13.73-.13a6.39,6.39,0,0,1,.87-.77,25.61,25.61,0,0,0,3.66-3.17A25.46,25.46,0,0,1,12.47,19a2,2,0,0,0,.86-1.77,8.2,8.2,0,0,1,.53-3,.46.46,0,0,0,.06-.44A21.26,21.26,0,0,1,11.61,15a54.54,54.54,0,0,1-8.06,2.81c-.3.09-.61.17-.84-.11s-.07-.54,0-.81A10.23,10.23,0,0,1,9.14,11a15.94,15.94,0,0,1,6.68-.81,1.51,1.51,0,0,0,.83-.16,7.34,7.34,0,0,1,5.79-.36,10.51,10.51,0,0,0,3.48.54c.82,0,1.65,0,2.47.07a6.39,6.39,0,0,0,5-1.76A28.21,28.21,0,0,1,37.8,5a10,10,0,0,1,4.61-1.67A.59.59,0,0,0,42.9,3l1.19-2c.16-.26.31-.56.68-.51s.45.42.52.73a4.4,4.4,0,0,1,.15.79c.1,1.51,1,2.6,1.87,3.74a21.34,21.34,0,0,0,2.71,3,2.16,2.16,0,0,1,.91,2,2.22,2.22,0,0,1-2.86,1.51,4.28,4.28,0,0,1-1.6-1,2.06,2.06,0,0,0-1-.53,4.49,4.49,0,0,1-1.35-.54c-.21-.12-.34-.1-.45.12a13.5,13.5,0,0,1-3,3.68,3.49,3.49,0,0,0-.81,3.14c0,.24.22.3.43.36,1.74.52,3.44,1.19,5.21,1.63a5.18,5.18,0,0,1,2.1,1.37,56.94,56.94,0,0,1,4.23,4.28,2.75,2.75,0,0,1,.52.74ZM4.09,16.52l.12,0,1.17-.35A37.91,37.91,0,0,0,13.1,13.1a13.61,13.61,0,0,0,1.4-1,.77.77,0,0,1,.94-.08.67.67,0,0,1,.33.69,1.5,1.5,0,0,1-.27.65,6.26,6.26,0,0,0-1.13,4,2.58,2.58,0,0,1-.89,2.06,7.15,7.15,0,0,1-1.25,1A14,14,0,0,0,10,22.23a31.87,31.87,0,0,1-3.7,3.36,5.06,5.06,0,0,0-1.55,1.28,1.38,1.38,0,0,1-1.61.51c-.82-.17-1-.07-1.39.68-.19.4,0,.43.31.4A3,3,0,0,0,3.3,28a1.41,1.41,0,0,1,.86-.2,1.19,1.19,0,0,0,1.25-.49,6.25,6.25,0,0,1,1.45-1.54,22.1,22.1,0,0,1,5.83-3.87,2.94,2.94,0,0,1,1.67-.3,10.1,10.1,0,0,0,6-.77c1.61-.68,3-1.61,2.92-3.68,0-.33.16-.62.54-.6s.48.31.5.65a3.8,3.8,0,0,1-.88,2.72c-.41.51-.4.52.22.75a15.89,15.89,0,0,0,7.67.77,9.23,9.23,0,0,0,2.53-.64c-.43-.21-.78-.37-1.11-.56A3.33,3.33,0,0,1,31.32,19c-.15-.29-.21-.6.12-.8s.58,0,.75.26a2.29,2.29,0,0,0,.71.71,7,7,0,0,0,2.72,1,29.15,29.15,0,0,0,4.94.23c2,.07,4,.15,5.79,1.3a3.51,3.51,0,0,1,1.11,1,3.09,3.09,0,0,0,2,1.57c.31.06.4.35.36.64-.13.92.25.87.93.85.11,0,.26,0,.32-.09s-.07-.21-.14-.29A57.08,57.08,0,0,0,46.48,21a4.52,4.52,0,0,0-1.95-1A20.19,20.19,0,0,1,41,18.82a4,4,0,0,0-1.32-.33.77.77,0,0,1-.73-.53c-.48-1.21-.18-3.75,1-4.74A9.38,9.38,0,0,0,43.08,9c.16-.47.55-.53.93-.18a3.28,3.28,0,0,0,1.57.87,3.71,3.71,0,0,1,1.71.92,2.61,2.61,0,0,0,1.22.69,1.21,1.21,0,0,0,1.32-.61c.25-.44-.09-.73-.31-1a1.92,1.92,0,0,0-.28-.29,18.73,18.73,0,0,1-2.71-3c-.86-1.19-1.89-2.27-2.05-3.82,0,0,0,0-.11-.09-.28.48-.57,1-.84,1.43a.83.83,0,0,1-.78.47,7.72,7.72,0,0,0-3.91,1.21A23.16,23.16,0,0,0,34.11,9.3a7.34,7.34,0,0,1-4.42,2c-1.25.12-2.49-.07-3.73-.05a10.59,10.59,0,0,1-3.78-.57,6.4,6.4,0,0,0-5.29.38,1.28,1.28,0,0,1-.77.21,14.45,14.45,0,0,0-3.22,0,11.92,11.92,0,0,0-6.38,2.3A7.83,7.83,0,0,0,4.09,16.52ZM47.37,32.2l.06-.12c-.64-.67-1.29-1.32-1.92-2a23.89,23.89,0,0,1-3.57-4.44c-.58-1-1.13-2.07-1.76-3.07-.91-1.43-.51-1.09-2.11-1.14h0c-.1,0-.22,0-.28.07s0,.19.1.26c1.81,2.33,3.52,4.73,5.46,7a2.49,2.49,0,0,1,.53.9c.24.81.4.92,1.23,1,.48,0,.66.26.58.73,0,.12-.06.23-.08.35-.07.33,0,.53.4.53ZM19.26,22.31a15.26,15.26,0,0,1-3.15.48,12.32,12.32,0,0,1-1.61-.11c-1.1-.1-1.49,0-1.78,1.05a11.34,11.34,0,0,0-.48,2.88c0,.95,0,1.89-.07,2.83-.08,1.16,0,1.28,1.08,1.62l.19.05a.77.77,0,0,1,.57.58.88.88,0,0,0,1.32.61c-.21-.34-.4-.7-.64-1a1.69,1.69,0,0,0-1.15-.83.74.74,0,0,1-.72-.81,12.79,12.79,0,0,0-.07-1.52,5,5,0,0,1,.38-2.66,3.07,3.07,0,0,1,2.67-2.1,12.31,12.31,0,0,0,2.26-.25A2,2,0,0,0,19.26,22.31Z"/></svg>