<svg id="Layer_1" data-name="Layer 1" xmlns="http://www.w3.org/2000/svg" viewBox="0 0 33 39"><path d="M32.79,19.78c.39-1.55-5.07-12.49-6.27-8.64-.28,4.07-6.19,4.12-6.66.21a4.11,4.11,0,0,1,.76-2.64A5.73,5.73,0,0,0,16.86.05a.84.84,0,0,0-1,1.25,2.24,2.24,0,0,1-1.95,3.28A5.64,5.64,0,0,0,9.44,13a3.32,3.32,0,0,1,.5,2.35c-.31,2.22-3.27,3.43-4.86,1.72C3.5,15.8,4.3,13.8,3.23,13.57c-.4-.09-.7.08-1,.59a16.58,16.58,0,0,0,.38,17.27h0C12.59,46.37,35.43,37.5,32.79,19.78ZM24.35,35.14C12.44,43-3.1,29.62,2.79,16.68c2.92,6,11.38,1.22,8.09-4.38a4,4,0,0,1,3-6.09c2.44-.31,3.53-1.39,3.87-3.86.12-.76,1.72,1.28,1.76,1.6,1.55,3.08-1.76,4.62-1.24,7.61.53,5,7.65,5.89,9.54,1.28C33.87,19.57,32,30.58,24.35,35.14Z"/><path d="M14.5,31.85a.8.8,0,0,1-.8-1.16c.36-.8.76-1.59,1.15-2.39q1.44-3,2.89-5.94a.89.89,0,0,1,.08-.17.81.81,0,0,1,1.09-.47.82.82,0,0,1,.36,1.16c-.4.85-.82,1.69-1.22,2.53-.94,1.94-1.89,3.87-2.82,5.81C15.06,31.57,14.84,31.84,14.5,31.85Z"/><path d="M10.32,23.07a2.48,2.48,0,1,1,2.48,2.46A2.51,2.51,0,0,1,10.32,23.07Zm2.47-.88a.84.84,0,0,0-.84.88.8.8,0,0,0,.83.83.84.84,0,0,0,.88-.84A.88.88,0,0,0,12.79,22.19Z"/><path d="M22.69,30.5A2.48,2.48,0,1,1,20.25,28,2.46,2.46,0,0,1,22.69,30.5Zm-2.49-.87a.85.85,0,0,0-.85.87.92.92,0,0,0,.86.85.84.84,0,0,0,.85-.87A.81.81,0,0,0,20.2,29.63Z"/></svg>