<svg id="Layer_1" data-name="Layer 1" xmlns="http://www.w3.org/2000/svg" viewBox="0 0 33 33.08"><path d="M14,19.9H27.1c.62,0,1,.32.93.88a.76.76,0,0,1-.71.72,3,3,0,0,1-.42,0H2.5c-.42,0-.42,0-.24.39l3,6.7a4.43,4.43,0,0,0,4.27,2.8q9.92,0,19.82,0a1.83,1.83,0,0,0,2-2q0-12.33,0-24.68a2.88,2.88,0,0,0-2.19-3,2.72,2.72,0,0,0-2.66.7C25.66,3.28,24.83,4.16,24,5c-.13.14-.12.23,0,.35.37.36.73.72,1.09,1.09a3.41,3.41,0,0,1,.08,4.76c-.25.27-.51.53-.78.79a.79.79,0,0,1-1.21,0c-.23-.21-.44-.42-.65-.64s-.2-.17-.33,0a8.11,8.11,0,0,0-1.68,4.42c0,.36,0,.72,0,1.08a.83.83,0,1,1-1.66,0A9.89,9.89,0,0,1,21,10.28c.15-.19.16-.31,0-.47a5.66,5.66,0,0,1-.6-.6c-.18-.21-.31-.2-.49,0a11.32,11.32,0,0,0-2,3.78,12.48,12.48,0,0,0-.53,3.38.79.79,0,0,1-.82.88.81.81,0,0,1-.79-.89,12.81,12.81,0,0,1,2.92-8.24c.35-.44.3-.34,0-.67-.16-.17-.34-.31-.48-.49s-.33-.24-.53,0a15.22,15.22,0,0,0-2,3.21,15.86,15.86,0,0,0-.64,1.61,1,1,0,0,1-.52.6.76.76,0,0,1-.83-.13.83.83,0,0,1-.23-.9A13.07,13.07,0,0,1,14,9.67a15.51,15.51,0,0,1,2.53-3.91c.15-.17.13-.26,0-.4s-.5-.48-.74-.74a.7.7,0,0,1-.09-1,4.57,4.57,0,0,1,2.52-1.81,3.36,3.36,0,0,1,3,.83c.41.36.79.76,1.16,1.15.18.19.29.19.47,0,.82-.84,1.64-1.66,2.47-2.48a4.5,4.5,0,0,1,6.43,0A4.39,4.39,0,0,1,33,4.52v25a3.43,3.43,0,0,1-3.53,3.54H9.66a6.17,6.17,0,0,1-4.21-1.5A5.45,5.45,0,0,1,4,29.66C2.87,27.24,1.77,24.81.66,22.38.49,22,.33,21.6.13,21.22A.88.88,0,0,1,1,19.88C5.33,19.91,9.68,19.9,14,19.9ZM18.88,3.44a1.62,1.62,0,0,0-1.21.45c-.15.13-.18.23,0,.39,2,2,3.9,3.89,5.84,5.84.17.18.27.14.42,0a1.84,1.84,0,0,0-.08-2.49C22.62,6.39,21.4,5.18,20.18,4A1.65,1.65,0,0,0,18.88,3.44Z"/><path d="M12.5,16.32c0-.25,0-.5,0-.75a.83.83,0,1,1,1.65.08c0,.4,0,.8,0,1.21a1.26,1.26,0,0,1-.1.54.81.81,0,0,1-.9.44.79.79,0,0,1-.64-.73c0-.26,0-.52,0-.79Z"/></svg>