<svg id="Layer_1" data-name="Layer 1" xmlns="http://www.w3.org/2000/svg" viewBox="0 0 43.9 33.78"><path d="M43.49,23.17a1,1,0,0,1-.9.38c-2.05,0-4.1,0-6.16,0-.65,0-.87-.16-1-.81a19.13,19.13,0,0,0-2.14-6.62.71.71,0,0,1,.25-1,.73.73,0,0,1,1,.42,19.79,19.79,0,0,1,2.12,6.06c.1.6.11.6.72.6h4.13c.6,0,.62,0,.57-.63a21.16,21.16,0,0,0-2.65-9,22.71,22.71,0,0,0-2.16-3.17A2.34,2.34,0,0,1,37,8.89a.62.62,0,0,1,.19-.76.59.59,0,0,1,.74-.08,1.22,1.22,0,0,1,.32.28,22.22,22.22,0,0,1,5,11.15c.08.53.15,1.06.23,1.58Z"/><path d="M21,33.34a3.13,3.13,0,0,1-2.82-1.71,3,3,0,0,1,.14-3.28c1.07-1.55,2.3-3,3.47-4.46L36.18,5.7c0-.06.09-.12.14-.17.32-.38.7-.48,1-.25a.73.73,0,0,1,.15,1q-4.05,7.53-8.09,15.05-2.66,4.95-5.3,9.89a3.55,3.55,0,0,1-2.57,2.05A4.93,4.93,0,0,1,21,33.34ZM32.45,12.76l-.06,0a2,2,0,0,0-.19.22L22,25.88c-.81,1-1.63,2-2.42,3.09a1.83,1.83,0,0,0,.19,2.46,1.86,1.86,0,0,0,2.46.11,3,3,0,0,0,.7-.95l7.68-14.31C31.2,15.11,31.82,13.93,32.45,12.76Z"/><path d="M34.15,4.58A22.49,22.49,0,0,0,21.08.35,21.81,21.81,0,0,0,15.67,1l-.59.15-.05,0a14.16,14.16,0,0,0-1.64.52,23.45,23.45,0,0,0-2.53,1.08,15.16,15.16,0,0,0-1.8,1,.39.39,0,0,0-.1.08A22.42,22.42,0,0,0,.43,13.7a2.08,2.08,0,0,0-.18.51.6.6,0,0,0,.29.69.61.61,0,0,0,.78-.05,2.42,2.42,0,0,0,.36-.42A18.64,18.64,0,0,1,19.09,6.55,18.28,18.28,0,0,1,26.25,8.9a20.44,20.44,0,0,1,3.49,2.58.7.7,0,0,0,1.08,0c.29-.33.23-.68-.18-1.06a20.2,20.2,0,0,0-5.76-3.77,19.73,19.73,0,0,0-8.51-1.6A20.14,20.14,0,0,0,10,6.32,23.32,23.32,0,0,0,5.33,8.71a2.26,2.26,0,0,1,.2-.26,21.45,21.45,0,0,1,5.12-4l.58-.32a21.24,21.24,0,0,1,13.92-2,22.76,22.76,0,0,1,4.61,1.49l.12,0a24.12,24.12,0,0,1,3.51,2,.71.71,0,0,0,1.08-.13C34.68,5.25,34.56,4.87,34.15,4.58Z"/><path d="M21.45,30.33a.68.68,0,0,1-1.36,0,.68.68,0,0,1,1.36,0Z"/></svg>