<svg id="Layer_1" data-name="Layer 1" xmlns="http://www.w3.org/2000/svg" viewBox="0 0 33.21 38.5"><path d="M16.72,0h2.82c.59,0,.8.21.81.8V3.06c0,.59-.21.81-.79.84-.91.05-.91.05-.91,1,0,.68,0,.65.6.74a14.52,14.52,0,0,1,3.59,1c.28.12.41,0,.54-.21.42-.76.87-1.52,1.3-2.27.31-.54.59-.62,1.13-.32L27.8,5c.47.28.55.55.28,1q-.66,1.19-1.35,2.34c-.15.25-.14.38.1.56a16.06,16.06,0,0,1,6,9.81,16.15,16.15,0,0,1-3.95,14.35,15.65,15.65,0,0,1-9.62,5.22A16,16,0,0,1,5.53,34.12,15.65,15.65,0,0,1,.35,24.17a16.24,16.24,0,0,1,6-15.12c.57-.48.49-.32.16-.91s-.8-1.4-1.2-2.1c-.3-.54-.23-.79.29-1.1l2-1.14c.5-.28.78-.21,1.07.29.45.77.91,1.55,1.34,2.34.13.24.26.28.52.18a15,15,0,0,1,3.83-1c.28,0,.38-.16.37-.42s0-.59,0-.89-.12-.38-.38-.37a5.88,5.88,0,0,1-.73,0,.61.61,0,0,1-.58-.65c0-.87,0-1.73,0-2.59,0-.42.26-.63.71-.64Zm0,37.25A15.31,15.31,0,1,0,1.41,22,15.29,15.29,0,0,0,16.68,37.25Zm0-34.59h1.48c1.06,0,.91.18.94-.94,0-.38-.13-.5-.49-.49-1.11,0-2.22,0-3.34,0s-1-.19-1,1c0,.3.12.39.41.39C15.36,2.65,16,2.66,16.7,2.66Zm-9,2.49c-.26.15-.56.33-.86.49s-.21.24-.1.43c.32.56.64,1.11,1,1.68.1.17.2.22.38.1a8.46,8.46,0,0,1,.77-.44c.19-.1.2-.22.1-.39L8,5.34A.31.31,0,0,0,7.72,5.15Zm19,.76c0-.16-.09-.21-.18-.26l-.69-.41c-.22-.15-.36-.1-.48.13-.3.54-.61,1.08-.92,1.61-.12.2-.12.33.11.44a4.92,4.92,0,0,1,.7.41c.2.14.32.1.44-.11.29-.55.61-1.08.92-1.61ZM17.41,4.69a2.61,2.61,0,0,1,0-.28c.05-.38-.1-.53-.49-.52-1.08,0-.92-.1-.93.93V5.1c0,.22.09.32.31.31h.4C17.46,5.41,17.41,5.5,17.41,4.69Z"/><path d="M16.71,34.81A12.86,12.86,0,1,1,29.53,21.87,12.9,12.9,0,0,1,16.71,34.81Zm-1-24.46a12.13,12.13,0,0,0-4.05,1.1c-.29.14-.3.28-.14.52a8.57,8.57,0,0,1,.45.77.61.61,0,1,1-1,.61q-.27-.42-.51-.87c-.1-.19-.21-.2-.38-.08a11.53,11.53,0,0,0-3,3c-.12.16-.09.25.08.35s.56.31.83.48.53.58.34.9-.54.38-1,.15c-.24-.14-.5-.27-.73-.43s-.36-.13-.48.14a12.27,12.27,0,0,0-1.08,3.95c0,.3.08.41.38.4a8.51,8.51,0,0,1,1,0,.58.58,0,0,1,.58.61.59.59,0,0,1-.58.61,3.27,3.27,0,0,1-.44,0c-1,0-1,0-.87,1a11.41,11.41,0,0,0,1,3.5c.1.21.21.24.4.11s.58-.34.87-.5a.61.61,0,0,1,.88.17.6.6,0,0,1-.26.86c-.28.18-.57.35-.86.52s-.24.21-.1.41a11.91,11.91,0,0,0,2.92,2.92c.22.15.33.1.44-.11a9.42,9.42,0,0,1,.51-.87.57.57,0,0,1,.82-.25.6.6,0,0,1,.21.87q-.24.45-.51.87c-.11.19-.11.3.11.41a11.46,11.46,0,0,0,4.1,1.1c.29,0,.34-.1.33-.35s0-.67,0-1a.59.59,0,1,1,1.18,0c0,.34,0,.7,0,1s.06.31.3.3a11.07,11.07,0,0,0,4.17-1.13c.21-.1.24-.21.12-.41a10,10,0,0,1-.52-.9.6.6,0,0,1,.21-.85.61.61,0,0,1,.83.25,9.42,9.42,0,0,1,.51.87c.11.21.21.27.43.12a12.2,12.2,0,0,0,2.94-3c.12-.18.08-.28-.1-.37s-.59-.33-.87-.51a.6.6,0,0,1-.3-.85.62.62,0,0,1,.91-.2q.43.24.87.51c.18.11.28.08.37-.11a12.27,12.27,0,0,0,1.12-4.07c0-.26-.09-.36-.35-.35H27A.64.64,0,0,1,26.3,22a.63.63,0,0,1,.67-.61c.33,0,.65,0,1,0s.36-.11.34-.36a12.45,12.45,0,0,0-1.13-4.1c-.11-.22-.22-.23-.41-.11s-.55.33-.83.48a.62.62,0,0,1-.92-.15c-.19-.31-.09-.64.29-.88s.55-.33.83-.49.26-.21.12-.42a12.16,12.16,0,0,0-3-2.94c-.18-.12-.29-.09-.39.09s-.34.61-.53.91a.61.61,0,1,1-1-.63c.17-.31.34-.61.53-.91s.07-.26-.11-.34a11,11,0,0,0-4.17-1.12c-.22,0-.29.06-.28.27s0,.73,0,1.09a.59.59,0,1,1-1.18,0,7.21,7.21,0,0,1,0-.93C16.15,10.43,16,10.27,15.75,10.35Z"/><path d="M17.29,16.58c0,.82,0,1.64,0,2.46a.41.41,0,0,0,.3.45A2.49,2.49,0,0,1,19.14,21c.09.25.25.3.49.3H24.3c.63,0,.95.21.95.62s-.32.62-.95.62c-1.54,0-3.07,0-4.6,0a.52.52,0,0,0-.59.39,2.61,2.61,0,0,1-5-.61,2.56,2.56,0,0,1,1.58-2.79.58.58,0,0,0,.42-.66q0-2.4,0-4.8c0-.46.22-.7.6-.69s.57.23.58.64c0,.85,0,1.69,0,2.54Zm-.6,6.76A1.39,1.39,0,1,0,15.29,22,1.39,1.39,0,0,0,16.69,23.34Z"/></svg>