<svg id="Layer_1" data-name="Layer 1" xmlns="http://www.w3.org/2000/svg" viewBox="0 0 32.38 36.44"><path d="M29.6,22.4a1.28,1.28,0,0,1,.75-.73A3.07,3.07,0,0,0,31,16.22a3.59,3.59,0,0,0-2.17-.54H17.21c-.79,0-1-.17-1-.95V4a3.92,3.92,0,0,0-.91-2.75A4,4,0,0,0,13.24,0H3.13a3.87,3.87,0,0,0-3,4.13c0,3.84,0,7.75,0,11.52V18a4.54,4.54,0,0,0,.52,2.52,1.35,1.35,0,0,1,.13.32A15.33,15.33,0,0,0,8.31,30a1,1,0,0,1,.57,1c0,1.47,0,2.94,0,4.42,0,.79.25,1,1,1H21.06c.76,0,1-.25,1-1v-.87c0-1.2,0-2.4,0-3.59a1,1,0,0,1,.59-1A15.27,15.27,0,0,0,29.6,22.4ZM4,1.46c2.82,0,5.63,0,8.45,0a2.33,2.33,0,0,1,1.74.72A2.38,2.38,0,0,1,14.73,4c0,.4-.23.59-.71.59H2.49a.8.8,0,0,1-.62-.21.84.84,0,0,1-.21-.64A2.18,2.18,0,0,1,4,1.46ZM1.67,7.18c0-.86.17-1,1-1h11.2a.82.82,0,0,1,.64.21.85.85,0,0,1,.21.65c0,2,0,4,0,5.94v1.89c0,.68-.17.85-.87.85h-10a5.59,5.59,0,0,0-1.45.13l-.22,0a.57.57,0,0,1-.34-.1.68.68,0,0,1-.21-.55v-8Zm0,11.66a1.55,1.55,0,0,1,1.44-1.63H29.35a1.55,1.55,0,0,1,1.5,1.61,1.57,1.57,0,0,1-1.54,1.55H3.18A1.56,1.56,0,0,1,1.68,18.84ZM21.21,29a1,1,0,0,0-.67,1c0,.68,0,1.35,0,2s0,1.39,0,2.08a.86.86,0,0,1-.19.6.83.83,0,0,1-.59.19H11.16a.75.75,0,0,1-.58-.19.81.81,0,0,1-.19-.58c0-.54,0-1.09,0-1.64,0-.82,0-1.64,0-2.46A1,1,0,0,0,9.7,29a13.76,13.76,0,0,1-6-5.31c-.11-.18-.21-.37-.32-.56l-.2-.37a.58.58,0,0,1-.06-.61.61.61,0,0,1,.58-.26H27.29a.54.54,0,0,1,.5.86l-.21.37c-.17.3-.33.59-.52.87A13.71,13.71,0,0,1,21.21,29Z"/></svg>